G04*
G04 #@! TF.GenerationSoftware,Altium Limited,Altium Designer,24.1.2 (44)*
G04*
G04 Layer_Color=4660084*
%FSLAX44Y44*%
%MOMM*%
G71*
G04*
G04 #@! TF.SameCoordinates,822C3FA0-46CB-4BB5-8DFA-45C5CE0E6DCB*
G04*
G04*
G04 #@! TF.FilePolarity,Negative*
G04*
G01*
G75*
%ADD11C,6.2032*%
%ADD12C,1.5732*%
%ADD13R,1.5732X1.5732*%
%ADD14C,2.4032*%
%ADD15C,4.7032*%
G36*
X586151Y94700D02*
X587136Y94700D01*
X589068Y94316D01*
X590887Y93562D01*
X592525Y92467D01*
X593918Y91075D01*
X595013Y89437D01*
X595766Y87617D01*
X596151Y85685D01*
X596151Y84700D01*
X596151D01*
Y700D01*
X508445D01*
X508445Y84700D01*
X508445Y85685D01*
X508829Y87617D01*
X509583Y89437D01*
X510678Y91075D01*
X512071Y92467D01*
X513708Y93562D01*
X515528Y94316D01*
X517460Y94700D01*
X518445Y94700D01*
Y94700D01*
X586151Y94700D01*
D02*
G37*
G36*
X95540Y413509D02*
X95540Y412524D01*
X95156Y410592D01*
X94402Y408772D01*
X93308Y407134D01*
X91915Y405742D01*
X90277Y404647D01*
X88457Y403893D01*
X86525Y403509D01*
X85540Y403509D01*
Y403509D01*
X1540D01*
Y491215D01*
X85540Y491214D01*
X86525Y491215D01*
X88457Y490830D01*
X90277Y490076D01*
X91915Y488982D01*
X93308Y487589D01*
X94402Y485951D01*
X95156Y484131D01*
X95540Y482200D01*
X95540Y481215D01*
X95540Y481215D01*
X95540Y413509D01*
D02*
G37*
G36*
X515749Y806420D02*
X514764Y806420D01*
X512832Y806804D01*
X511012Y807558D01*
X509375Y808652D01*
X507982Y810045D01*
X506887Y811683D01*
X506134Y813503D01*
X505749Y815435D01*
X505749Y816420D01*
X505749Y816420D01*
Y900420D01*
X593455D01*
X593455Y816420D01*
X593455Y815435D01*
X593070Y813503D01*
X592317Y811683D01*
X591222Y810045D01*
X589829Y808652D01*
X588191Y807558D01*
X586372Y806804D01*
X584440Y806420D01*
X583455Y806420D01*
X583455D01*
X515749D01*
D02*
G37*
G36*
X1383251Y94100D02*
X1384236Y94100D01*
X1386168Y93716D01*
X1387988Y92962D01*
X1389625Y91868D01*
X1391018Y90475D01*
X1392113Y88837D01*
X1392866Y87017D01*
X1393251Y85085D01*
X1393251Y84100D01*
X1393251D01*
Y100D01*
X1305545D01*
X1305545Y84100D01*
X1305545Y85085D01*
X1305930Y87017D01*
X1306683Y88837D01*
X1307778Y90475D01*
X1309171Y91868D01*
X1310808Y92962D01*
X1312628Y93716D01*
X1314560Y94100D01*
X1315545Y94100D01*
Y94100D01*
X1383251Y94100D01*
D02*
G37*
G36*
X1786760Y485511D02*
X1786760Y486496D01*
X1787144Y488427D01*
X1787898Y490247D01*
X1788992Y491885D01*
X1790385Y493278D01*
X1792023Y494372D01*
X1793843Y495126D01*
X1795775Y495510D01*
X1796760Y495510D01*
X1796760Y495511D01*
X1880760D01*
Y407805D01*
X1796760Y407805D01*
X1795775Y407805D01*
X1793843Y408189D01*
X1792023Y408943D01*
X1790385Y410037D01*
X1788992Y411430D01*
X1787898Y413068D01*
X1787144Y414888D01*
X1786760Y416820D01*
X1786760Y417805D01*
D01*
Y485511D01*
D02*
G37*
G36*
X1315249Y806320D02*
X1314264Y806320D01*
X1312332Y806704D01*
X1310513Y807458D01*
X1308875Y808552D01*
X1307482Y809945D01*
X1306387Y811583D01*
X1305634Y813403D01*
X1305249Y815335D01*
X1305249Y816320D01*
X1305249Y816320D01*
Y900320D01*
X1392955D01*
X1392955Y816320D01*
X1392955Y815335D01*
X1392570Y813403D01*
X1391817Y811583D01*
X1390722Y809945D01*
X1389329Y808552D01*
X1387691Y807458D01*
X1385872Y806704D01*
X1383940Y806320D01*
X1382955Y806320D01*
X1382955D01*
X1315249D01*
D02*
G37*
D11*
X550000Y50000D02*
D03*
Y850000D02*
D03*
X1350000Y50000D02*
D03*
Y850000D02*
D03*
X50000Y450000D02*
D03*
X1830000D02*
D03*
X1797300Y824600D02*
D03*
X60000Y810000D02*
D03*
Y90000D02*
D03*
X1067400Y88000D02*
D03*
X1061300Y824500D02*
D03*
X1797400Y88000D02*
D03*
X780000Y90000D02*
D03*
Y810000D02*
D03*
D12*
X1030300Y736200D02*
D03*
X1055700D02*
D03*
X1030300Y710800D02*
D03*
X1055700D02*
D03*
X1030300Y685400D02*
D03*
X1055700D02*
D03*
X1030300Y660000D02*
D03*
X1055700D02*
D03*
X1030300Y634600D02*
D03*
X1055700D02*
D03*
X1030300Y609200D02*
D03*
X1055700D02*
D03*
X1030300Y583800D02*
D03*
X1055700Y163800D02*
D03*
X1030300D02*
D03*
X1055700Y189200D02*
D03*
X1030300D02*
D03*
X1055700Y214600D02*
D03*
X1030300D02*
D03*
X1055700Y240000D02*
D03*
X1030300D02*
D03*
X1055700Y265400D02*
D03*
X1030300D02*
D03*
X1055700Y290800D02*
D03*
X1030300D02*
D03*
X1055700Y316200D02*
D03*
D13*
X1055700Y583800D02*
D03*
X1030300Y316200D02*
D03*
D14*
X511400Y450000D02*
D03*
Y410000D02*
D03*
Y370000D02*
D03*
Y490000D02*
D03*
Y530000D02*
D03*
X416100Y450000D02*
D03*
Y490000D02*
D03*
Y530000D02*
D03*
Y410000D02*
D03*
Y370000D02*
D03*
X289100Y450000D02*
D03*
Y410000D02*
D03*
Y370000D02*
D03*
Y490000D02*
D03*
Y530000D02*
D03*
X1336900D02*
D03*
Y490000D02*
D03*
Y370000D02*
D03*
Y410000D02*
D03*
Y450000D02*
D03*
X1559200Y530000D02*
D03*
Y490000D02*
D03*
Y370000D02*
D03*
Y410000D02*
D03*
Y450000D02*
D03*
X1463900Y370000D02*
D03*
Y410000D02*
D03*
Y530000D02*
D03*
Y490000D02*
D03*
Y450000D02*
D03*
D15*
X511400Y320000D02*
D03*
Y580000D02*
D03*
X416100D02*
D03*
Y320000D02*
D03*
X289100D02*
D03*
Y580000D02*
D03*
X1336900D02*
D03*
Y320000D02*
D03*
X1559200Y580000D02*
D03*
Y320000D02*
D03*
X1463900D02*
D03*
Y580000D02*
D03*
M02*
