M48
;Layer_Color=9339205
;FILE_FORMAT=4:2
METRIC,TZ
;TYPE=PLATED
T01F00S00C1.02
T02F00S00C1.20
T03F00S00C3.18
T04F00S00C3.20
%
T01
X10303Y1638
X10557
Y1892
X10303
Y2146
X10557
Y2400
X10303
Y2654
X10557
Y2908
X10303
Y3162
X10557
X10557Y5838
Y6092
Y6346
Y6600
Y6854
Y7108
Y7362
X10303
Y7108
Y6854
Y6600
Y6346
Y6092
Y5838
T02
X2891Y3700
X4161
X5114
X13369
X14639
X15592
Y4100
Y4500
Y4900
Y5300
X14639
Y4900
Y4500
Y4100
X13369
Y4500
Y4900
Y5300
X5114
Y4900
Y4500
Y4100
X4161
Y4500
Y4900
Y5300
X2891
Y4900
Y4500
Y4100
T03
X600Y900
X7800
X600Y8100
X7800
T04
X2891Y3200
X4161
X5114
X5500Y500
X10674Y880
X13500Y500
X13369Y3200
X14639
X15592
X17974Y880
X18300Y4500
X15592Y5800
X14639
X13369
X5114
X4161
X2891
X500Y4500
X5500Y8500
X10613Y8245
X13500Y8500
X17973Y8246
M30
