G04*
G04 #@! TF.GenerationSoftware,Altium Limited,Altium Designer,24.1.2 (44)*
G04*
G04 Layer_Physical_Order=1*
G04 Layer_Color=2441676*
%FSLAX44Y44*%
%MOMM*%
G71*
G04*
G04 #@! TF.SameCoordinates,A6084898-CC4A-43A9-84D0-52B613330B6D*
G04*
G04*
G04 #@! TF.FilePolarity,Positive*
G04*
G01*
G75*
%ADD10C,0.2000*%
%ADD16C,6.0000*%
%ADD17C,1.3700*%
%ADD18R,1.3700X1.3700*%
%ADD19C,2.2000*%
%ADD20C,4.5000*%
G36*
X1845786Y896532D02*
X1851430Y895177D01*
X1856792Y892956D01*
X1861740Y889923D01*
X1866154Y886154D01*
X1869923Y881740D01*
X1872956Y876792D01*
X1875177Y871430D01*
X1876532Y865786D01*
X1876974Y860165D01*
X1876941Y860000D01*
Y777900D01*
X1876963Y777790D01*
X1876571Y773808D01*
X1875378Y769874D01*
X1873439Y766247D01*
X1870831Y763069D01*
X1867652Y760461D01*
X1864026Y758522D01*
X1860092Y757329D01*
X1856312Y756957D01*
X1856050Y757009D01*
X1778000D01*
Y757052D01*
X1773883Y756646D01*
X1769925Y755445D01*
X1766277Y753495D01*
X1763079Y750871D01*
X1760455Y747673D01*
X1758505Y744025D01*
X1757304Y740067D01*
X1756898Y735950D01*
X1756941D01*
Y671950D01*
X1756898D01*
X1757304Y667833D01*
X1758505Y663875D01*
X1760455Y660227D01*
X1763079Y657029D01*
X1766277Y654405D01*
X1769925Y652455D01*
X1773883Y651254D01*
X1778000Y650848D01*
Y650891D01*
X1856050D01*
X1856312Y650943D01*
X1860092Y650571D01*
X1864026Y649378D01*
X1867652Y647439D01*
X1870831Y644831D01*
X1873439Y641653D01*
X1875378Y638026D01*
X1876571Y634092D01*
X1876963Y630110D01*
X1876941Y630000D01*
Y270000D01*
X1876963Y269890D01*
X1876571Y265908D01*
X1875378Y261974D01*
X1873439Y258347D01*
X1870831Y255169D01*
X1867652Y252561D01*
X1864026Y250623D01*
X1860092Y249429D01*
X1856312Y249057D01*
X1856050Y249109D01*
X1778000D01*
X1777928Y249095D01*
X1773883Y248696D01*
X1769925Y247495D01*
X1766277Y245545D01*
X1763079Y242921D01*
X1760455Y239723D01*
X1758505Y236075D01*
X1757304Y232117D01*
X1756898Y228000D01*
X1756941D01*
X1756941Y228000D01*
Y164100D01*
X1756898D01*
X1757304Y159983D01*
X1758505Y156025D01*
X1760455Y152377D01*
X1763079Y149179D01*
X1766277Y146555D01*
X1769925Y144605D01*
X1773883Y143404D01*
X1777928Y143006D01*
X1778000Y142991D01*
X1855749D01*
X1856000Y142941D01*
Y142941D01*
X1856033Y142971D01*
X1860092Y142571D01*
X1864026Y141377D01*
X1867652Y139439D01*
X1870831Y136831D01*
X1873439Y133652D01*
X1875378Y130026D01*
X1876571Y126092D01*
X1876963Y122110D01*
X1876941Y122000D01*
Y40000D01*
X1876974Y39835D01*
X1876532Y34214D01*
X1875177Y28570D01*
X1872956Y23208D01*
X1869923Y18260D01*
X1866154Y13846D01*
X1861740Y10077D01*
X1856792Y7044D01*
X1851430Y4823D01*
X1845786Y3468D01*
X1840165Y3026D01*
X1840000Y3059D01*
X1537900D01*
X1537790Y3037D01*
X1533808Y3429D01*
X1529874Y4622D01*
X1526248Y6561D01*
X1523069Y9169D01*
X1520461Y12348D01*
X1518522Y15974D01*
X1517329Y19908D01*
X1516937Y23890D01*
X1516959Y24000D01*
Y102000D01*
X1517002D01*
X1516596Y106117D01*
X1515395Y110075D01*
X1513445Y113723D01*
X1510821Y116921D01*
X1507623Y119545D01*
X1503975Y121495D01*
X1500017Y122696D01*
X1495900Y123102D01*
Y123059D01*
X1431900D01*
Y123102D01*
X1427783Y122696D01*
X1423825Y121495D01*
X1420177Y119545D01*
X1416979Y116921D01*
X1414355Y113723D01*
X1412405Y110075D01*
X1411204Y106117D01*
X1410798Y102000D01*
X1410841D01*
Y24000D01*
X1410863Y23890D01*
X1410471Y19908D01*
X1409277Y15974D01*
X1407339Y12348D01*
X1404731Y9169D01*
X1401552Y6561D01*
X1397926Y4622D01*
X1393992Y3429D01*
X1390010Y3037D01*
X1389900Y3059D01*
X1023800D01*
X1023756Y3050D01*
X1019908Y3429D01*
X1015974Y4622D01*
X1012347Y6561D01*
X1009169Y9169D01*
X1006561Y12348D01*
X1004623Y15974D01*
X1003429Y19908D01*
X1003050Y23756D01*
X1003059Y23800D01*
Y101900D01*
X1003102D01*
X1002696Y106017D01*
X1001495Y109975D01*
X999545Y113623D01*
X996921Y116821D01*
X993723Y119445D01*
X990075Y121395D01*
X986117Y122596D01*
X982569Y122945D01*
X982000Y123059D01*
X898100D01*
Y123102D01*
X893983Y122696D01*
X890025Y121495D01*
X886377Y119545D01*
X883179Y116921D01*
X880555Y113723D01*
X878605Y110075D01*
X877404Y106117D01*
X876998Y102000D01*
X876998D01*
X877051Y100734D01*
Y25254D01*
X877041Y24001D01*
X877041Y24000D01*
D01*
X876954Y22776D01*
X876671Y19908D01*
X875477Y15974D01*
X873539Y12348D01*
X870931Y9169D01*
X867753Y6561D01*
X864126Y4622D01*
X860192Y3429D01*
X857322Y3146D01*
X856100Y3059D01*
X855700Y3059D01*
X854845Y3059D01*
X489667D01*
X485908Y3429D01*
X481974Y4622D01*
X478348Y6561D01*
X475169Y9169D01*
X472561Y12348D01*
X470623Y15974D01*
X469429Y19908D01*
X469112Y23126D01*
X469149Y23310D01*
Y102000D01*
X469055Y102470D01*
X468696Y106117D01*
X467495Y110075D01*
X465545Y113723D01*
X462921Y116921D01*
X459723Y119545D01*
X456075Y121495D01*
X452117Y122696D01*
X448000Y123102D01*
Y123059D01*
X384000D01*
Y123102D01*
X379883Y122696D01*
X375925Y121495D01*
X372277Y119545D01*
X369079Y116921D01*
X366455Y113723D01*
X364505Y110075D01*
X363304Y106117D01*
X362898Y102000D01*
X362941D01*
Y23800D01*
X363017Y23420D01*
X362671Y19908D01*
X361478Y15974D01*
X359539Y12348D01*
X356931Y9169D01*
X353753Y6561D01*
X350126Y4622D01*
X346192Y3429D01*
X342277Y3043D01*
X342200Y3059D01*
X40000D01*
X39835Y3026D01*
X34214Y3468D01*
X28570Y4823D01*
X23208Y7044D01*
X18260Y10077D01*
X13846Y13846D01*
X10077Y18260D01*
X7044Y23208D01*
X4823Y28570D01*
X3468Y34214D01*
X3026Y39835D01*
X3059Y40000D01*
Y122333D01*
X3429Y126092D01*
X4622Y130026D01*
X6561Y133652D01*
X9169Y136831D01*
X12348Y139439D01*
X15974Y141377D01*
X19908Y142571D01*
X23967Y142971D01*
X24000Y142941D01*
Y142941D01*
X24251Y142991D01*
X101970D01*
X102042Y143006D01*
X106087Y143404D01*
X110045Y144605D01*
X113693Y146555D01*
X116891Y149179D01*
X119515Y152377D01*
X121465Y156025D01*
X122666Y159983D01*
X123072Y164100D01*
X123029D01*
Y227849D01*
X123059Y228000D01*
X123102D01*
X122696Y232117D01*
X121495Y236075D01*
X119545Y239723D01*
X116921Y242921D01*
X113723Y245545D01*
X110075Y247495D01*
X106117Y248696D01*
X102072Y249095D01*
X102000Y249109D01*
X24000D01*
X23722Y249053D01*
X19908Y249429D01*
X15974Y250623D01*
X12348Y252561D01*
X9169Y255169D01*
X6561Y258347D01*
X4622Y261974D01*
X3429Y265908D01*
X3037Y269890D01*
X3059Y270000D01*
Y521970D01*
Y630000D01*
X3037Y630110D01*
X3429Y634092D01*
X4622Y638026D01*
X6561Y641653D01*
X9169Y644831D01*
X12348Y647439D01*
X15974Y649378D01*
X19908Y650571D01*
X23967Y650971D01*
X24000Y650941D01*
Y650941D01*
X24251Y650991D01*
X101749D01*
X102000Y650941D01*
Y650898D01*
X106117Y651304D01*
X110075Y652505D01*
X113723Y654455D01*
X116921Y657079D01*
X119545Y660277D01*
X121495Y663925D01*
X122696Y667883D01*
X123102Y672000D01*
X123059D01*
Y736000D01*
X123102D01*
X122696Y740117D01*
X121495Y744075D01*
X119545Y747723D01*
X116921Y750921D01*
X113723Y753545D01*
X110075Y755495D01*
X106117Y756696D01*
X102000Y757102D01*
Y757102D01*
X101965Y757067D01*
X25545Y757384D01*
X24289Y757390D01*
X24276Y757390D01*
X23043Y757478D01*
X20182Y757760D01*
X16244Y758954D01*
X12616Y760894D01*
X9436Y763504D01*
X6826Y766684D01*
X4886Y770313D01*
X3692Y774250D01*
X3410Y777111D01*
X3322Y778344D01*
X3322Y778354D01*
X3317Y779613D01*
X3059Y860010D01*
X3026Y860170D01*
X3468Y865786D01*
X4823Y871430D01*
X7044Y876792D01*
X10077Y881740D01*
X13846Y886154D01*
X18260Y889923D01*
X23208Y892956D01*
X28570Y895177D01*
X34214Y896532D01*
X39835Y896974D01*
X40000Y896941D01*
X342000D01*
X342110Y896963D01*
X346092Y896571D01*
X350026Y895378D01*
X353652Y893439D01*
X356831Y890831D01*
X359439Y887653D01*
X361377Y884026D01*
X362571Y880092D01*
X362963Y876110D01*
X362941Y876000D01*
Y798000D01*
X362898D01*
X363304Y793883D01*
X364505Y789925D01*
X366455Y786277D01*
X369079Y783079D01*
X372277Y780455D01*
X375925Y778505D01*
X379883Y777304D01*
X384000Y776898D01*
Y776941D01*
X448100D01*
Y776898D01*
X452217Y777304D01*
X456175Y778505D01*
X459823Y780455D01*
X463021Y783079D01*
X465645Y786277D01*
X467595Y789925D01*
X468796Y793883D01*
X469202Y798000D01*
X469159D01*
X469149Y798050D01*
Y874734D01*
X469159Y876000D01*
X469248Y877233D01*
X469529Y880092D01*
X470723Y884026D01*
X472661Y887653D01*
X475269Y890831D01*
X478447Y893439D01*
X482074Y895378D01*
X486008Y896571D01*
X489766Y896941D01*
X856100D01*
X856211Y896963D01*
X860192Y896571D01*
X864126Y895378D01*
X867753Y893439D01*
X870931Y890831D01*
X873539Y887653D01*
X875477Y884026D01*
X876671Y880092D01*
X876953Y877233D01*
X877041Y876000D01*
X877041D01*
X877051Y875950D01*
Y798050D01*
X877041Y798000D01*
X876998D01*
X877404Y793883D01*
X878605Y789925D01*
X880555Y786277D01*
X883179Y783079D01*
X886377Y780455D01*
X890025Y778505D01*
X893983Y777304D01*
X898100Y776898D01*
Y776941D01*
X982000D01*
Y776898D01*
X986117Y777304D01*
X990075Y778505D01*
X993723Y780455D01*
X996921Y783079D01*
X999545Y786277D01*
X1001495Y789925D01*
X1002696Y793883D01*
X1003102Y798000D01*
X1003059D01*
Y876000D01*
X1003037Y876110D01*
X1003429Y880092D01*
X1004622Y884026D01*
X1006561Y887653D01*
X1009169Y890831D01*
X1012347Y893439D01*
X1015974Y895378D01*
X1019908Y896571D01*
X1023890Y896963D01*
X1024000Y896941D01*
X1389935D01*
X1390034Y896961D01*
X1393992Y896571D01*
X1397926Y895378D01*
X1401552Y893439D01*
X1404731Y890831D01*
X1407339Y887653D01*
X1409277Y884026D01*
X1410471Y880092D01*
X1410861Y876134D01*
X1410841Y876035D01*
Y798000D01*
X1410798D01*
X1411204Y793883D01*
X1412405Y789925D01*
X1414355Y786277D01*
X1416979Y783079D01*
X1420177Y780455D01*
X1423825Y778505D01*
X1427783Y777304D01*
X1431900Y776898D01*
Y776941D01*
X1495900D01*
Y776898D01*
X1500017Y777304D01*
X1503975Y778505D01*
X1507623Y780455D01*
X1510821Y783079D01*
X1513445Y786277D01*
X1515395Y789925D01*
X1516596Y793883D01*
X1517002Y798000D01*
X1516959D01*
Y876000D01*
X1516937Y876110D01*
X1517329Y880092D01*
X1518522Y884026D01*
X1520461Y887653D01*
X1523069Y890831D01*
X1526248Y893439D01*
X1529874Y895378D01*
X1533808Y896571D01*
X1537790Y896963D01*
X1537900Y896941D01*
X1840000D01*
X1840165Y896974D01*
X1845786Y896532D01*
D02*
G37*
%LPC*%
G36*
X1799819Y856600D02*
X1794782D01*
X1789807Y855812D01*
X1785016Y854256D01*
X1780528Y851969D01*
X1776453Y849008D01*
X1772892Y845447D01*
X1769931Y841372D01*
X1767644Y836884D01*
X1766088Y832093D01*
X1765300Y827119D01*
Y822082D01*
X1766088Y817107D01*
X1767644Y812316D01*
X1769931Y807828D01*
X1772892Y803753D01*
X1776453Y800192D01*
X1780528Y797231D01*
X1785016Y794944D01*
X1789807Y793388D01*
X1794782Y792600D01*
X1799819D01*
X1804793Y793388D01*
X1809584Y794944D01*
X1814072Y797231D01*
X1818147Y800192D01*
X1821708Y803753D01*
X1824669Y807828D01*
X1826956Y812316D01*
X1828512Y817107D01*
X1829300Y822082D01*
Y827119D01*
X1828512Y832093D01*
X1826956Y836884D01*
X1824669Y841372D01*
X1821708Y845447D01*
X1818147Y849008D01*
X1814072Y851969D01*
X1809584Y854256D01*
X1804793Y855812D01*
X1799819Y856600D01*
D02*
G37*
G36*
X1069818D02*
X1064781D01*
X1059807Y855812D01*
X1055016Y854256D01*
X1050528Y851969D01*
X1046453Y849008D01*
X1042892Y845447D01*
X1039931Y841372D01*
X1037644Y836884D01*
X1036088Y832093D01*
X1035300Y827119D01*
Y822082D01*
X1036088Y817107D01*
X1037644Y812316D01*
X1039931Y807828D01*
X1042892Y803753D01*
X1046453Y800192D01*
X1050528Y797231D01*
X1055016Y794944D01*
X1059807Y793388D01*
X1064781Y792600D01*
X1069818D01*
X1074793Y793388D01*
X1079584Y794944D01*
X1084072Y797231D01*
X1088147Y800192D01*
X1091708Y803753D01*
X1094669Y807828D01*
X1096956Y812316D01*
X1098512Y817107D01*
X1099300Y822082D01*
Y827119D01*
X1098512Y832093D01*
X1096956Y836884D01*
X1094669Y841372D01*
X1091708Y845447D01*
X1088147Y849008D01*
X1084072Y851969D01*
X1079584Y854256D01*
X1074793Y855812D01*
X1069818Y856600D01*
D02*
G37*
G36*
X782518Y842000D02*
X777482D01*
X772507Y841212D01*
X767716Y839656D01*
X763228Y837369D01*
X759153Y834408D01*
X755592Y830847D01*
X752631Y826772D01*
X750344Y822284D01*
X748788Y817493D01*
X748000Y812518D01*
Y807482D01*
X748788Y802507D01*
X750344Y797716D01*
X752631Y793228D01*
X755592Y789153D01*
X759153Y785592D01*
X763228Y782631D01*
X767716Y780344D01*
X772507Y778788D01*
X777482Y778000D01*
X782518D01*
X787493Y778788D01*
X792284Y780344D01*
X796772Y782631D01*
X800847Y785592D01*
X804408Y789153D01*
X807369Y793228D01*
X809656Y797716D01*
X811212Y802507D01*
X812000Y807482D01*
Y812518D01*
X811212Y817493D01*
X809656Y822284D01*
X807369Y826772D01*
X804408Y830847D01*
X800847Y834408D01*
X796772Y837369D01*
X792284Y839656D01*
X787493Y841212D01*
X782518Y842000D01*
D02*
G37*
G36*
X62519D02*
X57481D01*
X52507Y841212D01*
X47716Y839656D01*
X43228Y837369D01*
X39153Y834408D01*
X35592Y830847D01*
X32631Y826772D01*
X30344Y822284D01*
X28788Y817493D01*
X28000Y812518D01*
Y807482D01*
X28788Y802507D01*
X30344Y797716D01*
X32631Y793228D01*
X35592Y789153D01*
X39153Y785592D01*
X43228Y782631D01*
X47716Y780344D01*
X52507Y778788D01*
X57481Y778000D01*
X62519D01*
X67493Y778788D01*
X72284Y780344D01*
X76772Y782631D01*
X80847Y785592D01*
X84408Y789153D01*
X87369Y793228D01*
X89656Y797716D01*
X91212Y802507D01*
X92000Y807482D01*
Y812518D01*
X91212Y817493D01*
X89656Y822284D01*
X87369Y826772D01*
X84408Y830847D01*
X80847Y834408D01*
X76772Y837369D01*
X72284Y839656D01*
X67493Y841212D01*
X62519Y842000D01*
D02*
G37*
G36*
X1058200Y744692D02*
Y738700D01*
X1064192D01*
X1063947Y739616D01*
X1062782Y741634D01*
X1061134Y743282D01*
X1059116Y744447D01*
X1058200Y744692D01*
D02*
G37*
G36*
X1032800D02*
Y738700D01*
X1038792D01*
X1038547Y739616D01*
X1037382Y741634D01*
X1035734Y743282D01*
X1033716Y744447D01*
X1032800Y744692D01*
D02*
G37*
G36*
X1053200D02*
X1052284Y744447D01*
X1050266Y743282D01*
X1048618Y741634D01*
X1047453Y739616D01*
X1047208Y738700D01*
X1053200D01*
Y744692D01*
D02*
G37*
G36*
X1027800D02*
X1026884Y744447D01*
X1024866Y743282D01*
X1023218Y741634D01*
X1022053Y739616D01*
X1021808Y738700D01*
X1027800D01*
Y744692D01*
D02*
G37*
G36*
X1064192Y733700D02*
X1058200D01*
Y727708D01*
X1059116Y727953D01*
X1061134Y729118D01*
X1062782Y730766D01*
X1063947Y732784D01*
X1064192Y733700D01*
D02*
G37*
G36*
X1038792D02*
X1032800D01*
Y727708D01*
X1033716Y727953D01*
X1035734Y729118D01*
X1037382Y730766D01*
X1038547Y732784D01*
X1038792Y733700D01*
D02*
G37*
G36*
X1053200D02*
X1047208D01*
X1047453Y732784D01*
X1048618Y730766D01*
X1050266Y729118D01*
X1052284Y727953D01*
X1053200Y727708D01*
Y733700D01*
D02*
G37*
G36*
X1027800D02*
X1021808D01*
X1022053Y732784D01*
X1023218Y730766D01*
X1024866Y729118D01*
X1026884Y727953D01*
X1027800Y727708D01*
Y733700D01*
D02*
G37*
G36*
X1056865Y719650D02*
X1054535D01*
X1052284Y719047D01*
X1050266Y717882D01*
X1048618Y716234D01*
X1047453Y714216D01*
X1046850Y711965D01*
Y709635D01*
X1047453Y707384D01*
X1048618Y705366D01*
X1050266Y703718D01*
X1052284Y702553D01*
X1054535Y701950D01*
X1056865D01*
X1059116Y702553D01*
X1061134Y703718D01*
X1062782Y705366D01*
X1063947Y707384D01*
X1064550Y709635D01*
Y711965D01*
X1063947Y714216D01*
X1062782Y716234D01*
X1061134Y717882D01*
X1059116Y719047D01*
X1056865Y719650D01*
D02*
G37*
G36*
X1031465D02*
X1029135D01*
X1026884Y719047D01*
X1024866Y717882D01*
X1023218Y716234D01*
X1022053Y714216D01*
X1021450Y711965D01*
Y709635D01*
X1022053Y707384D01*
X1023218Y705366D01*
X1024866Y703718D01*
X1026884Y702553D01*
X1029135Y701950D01*
X1031465D01*
X1033716Y702553D01*
X1035734Y703718D01*
X1037382Y705366D01*
X1038547Y707384D01*
X1039150Y709635D01*
Y711965D01*
X1038547Y714216D01*
X1037382Y716234D01*
X1035734Y717882D01*
X1033716Y719047D01*
X1031465Y719650D01*
D02*
G37*
G36*
X1056865Y694250D02*
X1054535D01*
X1052284Y693647D01*
X1050266Y692482D01*
X1048618Y690834D01*
X1047453Y688816D01*
X1046850Y686565D01*
Y684235D01*
X1047453Y681984D01*
X1048618Y679966D01*
X1050266Y678318D01*
X1052284Y677153D01*
X1054535Y676550D01*
X1056865D01*
X1059116Y677153D01*
X1061134Y678318D01*
X1062782Y679966D01*
X1063947Y681984D01*
X1064550Y684235D01*
Y686565D01*
X1063947Y688816D01*
X1062782Y690834D01*
X1061134Y692482D01*
X1059116Y693647D01*
X1056865Y694250D01*
D02*
G37*
G36*
X1031465D02*
X1029135D01*
X1026884Y693647D01*
X1024866Y692482D01*
X1023218Y690834D01*
X1022053Y688816D01*
X1021450Y686565D01*
Y684235D01*
X1022053Y681984D01*
X1023218Y679966D01*
X1024866Y678318D01*
X1026884Y677153D01*
X1029135Y676550D01*
X1031465D01*
X1033716Y677153D01*
X1035734Y678318D01*
X1037382Y679966D01*
X1038547Y681984D01*
X1039150Y684235D01*
Y686565D01*
X1038547Y688816D01*
X1037382Y690834D01*
X1035734Y692482D01*
X1033716Y693647D01*
X1031465Y694250D01*
D02*
G37*
G36*
X1056865Y668850D02*
X1054535D01*
X1052284Y668247D01*
X1050266Y667082D01*
X1048618Y665434D01*
X1047453Y663416D01*
X1046850Y661165D01*
Y658835D01*
X1047453Y656584D01*
X1048618Y654566D01*
X1050266Y652918D01*
X1052284Y651753D01*
X1054535Y651150D01*
X1056865D01*
X1059116Y651753D01*
X1061134Y652918D01*
X1062782Y654566D01*
X1063947Y656584D01*
X1064550Y658835D01*
Y661165D01*
X1063947Y663416D01*
X1062782Y665434D01*
X1061134Y667082D01*
X1059116Y668247D01*
X1056865Y668850D01*
D02*
G37*
G36*
X1031465D02*
X1029135D01*
X1026884Y668247D01*
X1024866Y667082D01*
X1023218Y665434D01*
X1022053Y663416D01*
X1021450Y661165D01*
Y658835D01*
X1022053Y656584D01*
X1023218Y654566D01*
X1024866Y652918D01*
X1026884Y651753D01*
X1029135Y651150D01*
X1031465D01*
X1033716Y651753D01*
X1035734Y652918D01*
X1037382Y654566D01*
X1038547Y656584D01*
X1039150Y658835D01*
Y661165D01*
X1038547Y663416D01*
X1037382Y665434D01*
X1035734Y667082D01*
X1033716Y668247D01*
X1031465Y668850D01*
D02*
G37*
G36*
X1563258Y631369D02*
Y631329D01*
X1160462D01*
Y631365D01*
X1156593Y630984D01*
X1152874Y629856D01*
X1149446Y628024D01*
X1146442Y625558D01*
X1143976Y622554D01*
X1142144Y619126D01*
X1141015Y615406D01*
X1140635Y611538D01*
X1140635D01*
X1140531Y610311D01*
X1140335Y608820D01*
X1139286Y606288D01*
X1137617Y604113D01*
X1135442Y602444D01*
X1132909Y601395D01*
X1130257Y601046D01*
X1130192Y601059D01*
X1066900D01*
X1066896Y601058D01*
X1064792Y601335D01*
X1062829Y602148D01*
X1062651Y602285D01*
X1062568Y603552D01*
X1062782Y603766D01*
X1063947Y605784D01*
X1064550Y608035D01*
Y610365D01*
X1063947Y612616D01*
X1062782Y614634D01*
X1061134Y616282D01*
X1059116Y617447D01*
X1056865Y618050D01*
X1054535D01*
X1052284Y617447D01*
X1050266Y616282D01*
X1048618Y614634D01*
X1047453Y612616D01*
X1046850Y610365D01*
Y608035D01*
X1047453Y605784D01*
X1048618Y603766D01*
X1050266Y602118D01*
X1052284Y600953D01*
X1054535Y600350D01*
X1055607D01*
X1056390Y599571D01*
X1056772Y599072D01*
X1059230Y597187D01*
X1059321Y596890D01*
X1059270Y595793D01*
X1059211Y595665D01*
X1056695Y593735D01*
X1056341Y593274D01*
X1056196Y593142D01*
X1055998Y592982D01*
X1055820Y592856D01*
X1055668Y592762D01*
X1055543Y592699D01*
X1055446Y592660D01*
X1055412Y592650D01*
X1046850D01*
Y574950D01*
X1064550D01*
Y591384D01*
X1064593Y591402D01*
X1066630Y591670D01*
Y591671D01*
X1130192D01*
Y591634D01*
X1134075Y592017D01*
X1137809Y593149D01*
X1141250Y594989D01*
X1144266Y597464D01*
X1146741Y600480D01*
X1148581Y603921D01*
X1149713Y607655D01*
X1150096Y611538D01*
X1150096D01*
X1150199Y612766D01*
X1150393Y614236D01*
X1151434Y616750D01*
X1153091Y618909D01*
X1155250Y620566D01*
X1157764Y621607D01*
X1160398Y621954D01*
X1160462Y621941D01*
X1563258D01*
X1563420Y621973D01*
X1569004Y621534D01*
X1574608Y620189D01*
X1579932Y617983D01*
X1584846Y614972D01*
X1589229Y611229D01*
X1592972Y606846D01*
X1595983Y601932D01*
X1598189Y596608D01*
X1599534Y591004D01*
X1599973Y585420D01*
X1599941Y585258D01*
Y447379D01*
X1599966Y447256D01*
X1599548Y444085D01*
X1598277Y441016D01*
X1596255Y438380D01*
X1593619Y436358D01*
X1590550Y435087D01*
X1587379Y434669D01*
X1587256Y434694D01*
X1577565D01*
X1577547Y434690D01*
X1574578Y434982D01*
X1571705Y435854D01*
X1569058Y437269D01*
X1567529Y438524D01*
X1567329Y438805D01*
X1567234Y439010D01*
X1567207Y439134D01*
X1567210Y439236D01*
X1567251Y439392D01*
X1567378Y439644D01*
X1567635Y439992D01*
X1568122Y440495D01*
X1568200Y440615D01*
X1569603Y442018D01*
X1571314Y444982D01*
X1572200Y448288D01*
Y451712D01*
X1571314Y455018D01*
X1569603Y457982D01*
X1567182Y460403D01*
X1564218Y462114D01*
X1560912Y463000D01*
X1557489D01*
X1554182Y462114D01*
X1551218Y460403D01*
X1548797Y457982D01*
X1547086Y455018D01*
X1546200Y451712D01*
Y448288D01*
X1547086Y444982D01*
X1548797Y442018D01*
X1551218Y439597D01*
X1554182Y437886D01*
X1557489Y437000D01*
X1557871D01*
X1557931Y436989D01*
X1558467Y436848D01*
X1559031Y436656D01*
X1559597Y436419D01*
X1560911Y435727D01*
X1561540Y435331D01*
X1562984Y434280D01*
X1563732Y433667D01*
X1563896Y433579D01*
X1565638Y432150D01*
X1568313Y430720D01*
Y429280D01*
X1565638Y427850D01*
X1564065Y426560D01*
X1554606Y422228D01*
X1554182Y422114D01*
X1553508Y421725D01*
X1553369Y421661D01*
X1553326Y421630D01*
X1553275Y421615D01*
X1553166Y421527D01*
X1551218Y420403D01*
X1548797Y417982D01*
X1547086Y415018D01*
X1546200Y411712D01*
Y408288D01*
X1547086Y404982D01*
X1548797Y402018D01*
X1551218Y399597D01*
X1554182Y397886D01*
X1557489Y397000D01*
X1560912D01*
X1564218Y397886D01*
X1567182Y399597D01*
X1569603Y402018D01*
X1571314Y404982D01*
X1572200Y408288D01*
Y411712D01*
X1571314Y415018D01*
X1570759Y415980D01*
X1570731Y416086D01*
X1569469Y418663D01*
X1569053Y419691D01*
X1568752Y420593D01*
X1568570Y421336D01*
X1568496Y421897D01*
X1568502Y422251D01*
X1568508Y422280D01*
X1569058Y422731D01*
X1571705Y424146D01*
X1574578Y425018D01*
X1577547Y425310D01*
X1577565Y425306D01*
X1587256D01*
Y425258D01*
X1591572Y425684D01*
X1595721Y426942D01*
X1599546Y428986D01*
X1602898Y431737D01*
X1605649Y435089D01*
X1607693Y438914D01*
X1608951Y443063D01*
X1609377Y447379D01*
X1609329D01*
Y585258D01*
X1609369D01*
X1608974Y591277D01*
X1607798Y597192D01*
X1605859Y602904D01*
X1603191Y608313D01*
X1599840Y613329D01*
X1595863Y617863D01*
X1591328Y621840D01*
X1586313Y625191D01*
X1580904Y627859D01*
X1575193Y629798D01*
X1569277Y630974D01*
X1563258Y631369D01*
D02*
G37*
G36*
X1056865Y643450D02*
X1054535D01*
X1052284Y642847D01*
X1050266Y641682D01*
X1048618Y640034D01*
X1047453Y638016D01*
X1046850Y635765D01*
Y633435D01*
X1047453Y631184D01*
X1048618Y629166D01*
X1050266Y627518D01*
X1052284Y626353D01*
X1054535Y625750D01*
X1056865D01*
X1059116Y626353D01*
X1061134Y627518D01*
X1062782Y629166D01*
X1063947Y631184D01*
X1064550Y633435D01*
Y635765D01*
X1063947Y638016D01*
X1062782Y640034D01*
X1061134Y641682D01*
X1059116Y642847D01*
X1056865Y643450D01*
D02*
G37*
G36*
X1031465D02*
X1029135D01*
X1026884Y642847D01*
X1024866Y641682D01*
X1023218Y640034D01*
X1022053Y638016D01*
X1021450Y635765D01*
Y633435D01*
X1022053Y631184D01*
X1023218Y629166D01*
X1024866Y627518D01*
X1026884Y626353D01*
X1029135Y625750D01*
X1031465D01*
X1033716Y626353D01*
X1035734Y627518D01*
X1037382Y629166D01*
X1038547Y631184D01*
X1039150Y633435D01*
Y635765D01*
X1038547Y638016D01*
X1037382Y640034D01*
X1035734Y641682D01*
X1033716Y642847D01*
X1031465Y643450D01*
D02*
G37*
G36*
Y618050D02*
X1029135D01*
X1026884Y617447D01*
X1024866Y616282D01*
X1023218Y614634D01*
X1022053Y612616D01*
X1021450Y610365D01*
Y608035D01*
X1022053Y605784D01*
X1023218Y603766D01*
X1024866Y602118D01*
X1026884Y600953D01*
X1029135Y600350D01*
X1031465D01*
X1033716Y600953D01*
X1035734Y602118D01*
X1037382Y603766D01*
X1038547Y605784D01*
X1039150Y608035D01*
Y610365D01*
X1038547Y612616D01*
X1037382Y614634D01*
X1035734Y616282D01*
X1033716Y617447D01*
X1031465Y618050D01*
D02*
G37*
G36*
Y592650D02*
X1029135D01*
X1026884Y592047D01*
X1024866Y590882D01*
X1023218Y589234D01*
X1022053Y587216D01*
X1021450Y584965D01*
Y582635D01*
X1022053Y580384D01*
X1023218Y578366D01*
X1024866Y576718D01*
X1026884Y575553D01*
X1029135Y574950D01*
X1031465D01*
X1033716Y575553D01*
X1035734Y576718D01*
X1037382Y578366D01*
X1038547Y580384D01*
X1039150Y582635D01*
Y584965D01*
X1038547Y587216D01*
X1037382Y589234D01*
X1035734Y590882D01*
X1033716Y592047D01*
X1031465Y592650D01*
D02*
G37*
G36*
X1561613Y604500D02*
X1556787D01*
X1552054Y603559D01*
X1547595Y601712D01*
X1543582Y599030D01*
X1540170Y595618D01*
X1537488Y591605D01*
X1535641Y587146D01*
X1534700Y582413D01*
Y577587D01*
X1535641Y572854D01*
X1537488Y568395D01*
X1540170Y564382D01*
X1543582Y560970D01*
X1547595Y558288D01*
X1552054Y556441D01*
X1556787Y555500D01*
X1561613D01*
X1566346Y556441D01*
X1570805Y558288D01*
X1574818Y560970D01*
X1578230Y564382D01*
X1580912Y568395D01*
X1582758Y572854D01*
X1583700Y577587D01*
Y582413D01*
X1582758Y587146D01*
X1580912Y591605D01*
X1578230Y595618D01*
X1574818Y599030D01*
X1570805Y601712D01*
X1566346Y603559D01*
X1561613Y604500D01*
D02*
G37*
G36*
X1466313D02*
X1461487D01*
X1456754Y603559D01*
X1452295Y601712D01*
X1448282Y599030D01*
X1444870Y595618D01*
X1442188Y591605D01*
X1440341Y587146D01*
X1439400Y582413D01*
Y577587D01*
X1440341Y572854D01*
X1442188Y568395D01*
X1444870Y564382D01*
X1448282Y560970D01*
X1452295Y558288D01*
X1456754Y556441D01*
X1461487Y555500D01*
X1466313D01*
X1471046Y556441D01*
X1475505Y558288D01*
X1479518Y560970D01*
X1482930Y564382D01*
X1485612Y568395D01*
X1487458Y572854D01*
X1488400Y577587D01*
Y582413D01*
X1487458Y587146D01*
X1485612Y591605D01*
X1482930Y595618D01*
X1479518Y599030D01*
X1475505Y601712D01*
X1471046Y603559D01*
X1466313Y604500D01*
D02*
G37*
G36*
X1339313D02*
X1334487D01*
X1329754Y603559D01*
X1325295Y601712D01*
X1321282Y599030D01*
X1317870Y595618D01*
X1315188Y591605D01*
X1313342Y587146D01*
X1312400Y582413D01*
Y577587D01*
X1313342Y572854D01*
X1315188Y568395D01*
X1317870Y564382D01*
X1321282Y560970D01*
X1325295Y558288D01*
X1329754Y556441D01*
X1334487Y555500D01*
X1339313D01*
X1344046Y556441D01*
X1348505Y558288D01*
X1352518Y560970D01*
X1355930Y564382D01*
X1358612Y568395D01*
X1360459Y572854D01*
X1361400Y577587D01*
Y582413D01*
X1360459Y587146D01*
X1358612Y591605D01*
X1355930Y595618D01*
X1352518Y599030D01*
X1348505Y601712D01*
X1344046Y603559D01*
X1339313Y604500D01*
D02*
G37*
G36*
X513813D02*
X508987D01*
X504254Y603559D01*
X499795Y601712D01*
X495782Y599030D01*
X492370Y595618D01*
X489688Y591605D01*
X487841Y587146D01*
X486900Y582413D01*
Y577587D01*
X487841Y572854D01*
X489688Y568395D01*
X492370Y564382D01*
X495782Y560970D01*
X499795Y558288D01*
X504254Y556441D01*
X508987Y555500D01*
X513813D01*
X518546Y556441D01*
X523005Y558288D01*
X527018Y560970D01*
X530430Y564382D01*
X533112Y568395D01*
X534958Y572854D01*
X535900Y577587D01*
Y582413D01*
X534958Y587146D01*
X533112Y591605D01*
X530430Y595618D01*
X527018Y599030D01*
X523005Y601712D01*
X518546Y603559D01*
X513813Y604500D01*
D02*
G37*
G36*
X418513D02*
X413687D01*
X408954Y603559D01*
X404495Y601712D01*
X400482Y599030D01*
X397070Y595618D01*
X394388Y591605D01*
X392542Y587146D01*
X391600Y582413D01*
Y577587D01*
X392542Y572854D01*
X394388Y568395D01*
X397070Y564382D01*
X400482Y560970D01*
X404495Y558288D01*
X408954Y556441D01*
X413687Y555500D01*
X418513D01*
X423246Y556441D01*
X427705Y558288D01*
X431718Y560970D01*
X435130Y564382D01*
X437812Y568395D01*
X439659Y572854D01*
X440600Y577587D01*
Y582413D01*
X439659Y587146D01*
X437812Y591605D01*
X435130Y595618D01*
X431718Y599030D01*
X427705Y601712D01*
X423246Y603559D01*
X418513Y604500D01*
D02*
G37*
G36*
X291513D02*
X286687D01*
X281954Y603559D01*
X277495Y601712D01*
X273482Y599030D01*
X270070Y595618D01*
X267388Y591605D01*
X265541Y587146D01*
X264600Y582413D01*
Y577587D01*
X265541Y572854D01*
X267388Y568395D01*
X270070Y564382D01*
X273482Y560970D01*
X277495Y558288D01*
X281954Y556441D01*
X286687Y555500D01*
X291513D01*
X296246Y556441D01*
X300705Y558288D01*
X304718Y560970D01*
X308130Y564382D01*
X310812Y568395D01*
X312659Y572854D01*
X313600Y577587D01*
Y582413D01*
X312659Y587146D01*
X310812Y591605D01*
X308130Y595618D01*
X304718Y599030D01*
X300705Y601712D01*
X296246Y603559D01*
X291513Y604500D01*
D02*
G37*
G36*
X513900Y542789D02*
Y532500D01*
X524189D01*
X523514Y535018D01*
X521803Y537982D01*
X519382Y540403D01*
X516418Y542114D01*
X513900Y542789D01*
D02*
G37*
G36*
X508900D02*
X506382Y542114D01*
X503418Y540403D01*
X500997Y537982D01*
X499286Y535018D01*
X498611Y532500D01*
X508900D01*
Y542789D01*
D02*
G37*
G36*
X1561700D02*
Y532500D01*
X1571989D01*
X1571314Y535018D01*
X1569603Y537982D01*
X1567182Y540403D01*
X1564218Y542114D01*
X1561700Y542789D01*
D02*
G37*
G36*
X1556700D02*
X1554182Y542114D01*
X1551218Y540403D01*
X1548797Y537982D01*
X1547086Y535018D01*
X1546411Y532500D01*
X1556700D01*
Y542789D01*
D02*
G37*
G36*
X508900Y527500D02*
X498611D01*
X499286Y524982D01*
X500997Y522018D01*
X503418Y519597D01*
X506382Y517886D01*
X508900Y517211D01*
Y527500D01*
D02*
G37*
G36*
X1571989Y527500D02*
X1561700D01*
Y517211D01*
X1564218Y517886D01*
X1567182Y519597D01*
X1569603Y522018D01*
X1571314Y524982D01*
X1571989Y527500D01*
D02*
G37*
G36*
X1556700D02*
X1546411D01*
X1547086Y524982D01*
X1548797Y522018D01*
X1551218Y519597D01*
X1554182Y517886D01*
X1556700Y517211D01*
Y527500D01*
D02*
G37*
G36*
X524189Y527500D02*
X513900D01*
Y517211D01*
X516418Y517886D01*
X519382Y519597D01*
X521803Y522018D01*
X523514Y524982D01*
X524189Y527500D01*
D02*
G37*
G36*
X1465612Y543000D02*
X1462189D01*
X1458882Y542114D01*
X1455918Y540403D01*
X1453497Y537982D01*
X1451786Y535018D01*
X1450900Y531712D01*
Y528288D01*
X1451786Y524982D01*
X1453497Y522018D01*
X1455918Y519597D01*
X1458882Y517886D01*
X1462189Y517000D01*
X1465612D01*
X1468918Y517886D01*
X1471882Y519597D01*
X1474303Y522018D01*
X1476014Y524982D01*
X1476900Y528288D01*
Y531712D01*
X1476014Y535018D01*
X1474303Y537982D01*
X1471882Y540403D01*
X1468918Y542114D01*
X1465612Y543000D01*
D02*
G37*
G36*
X1338611D02*
X1335188D01*
X1331882Y542114D01*
X1328918Y540403D01*
X1326497Y537982D01*
X1324786Y535018D01*
X1323900Y531712D01*
Y528288D01*
X1324786Y524982D01*
X1326497Y522018D01*
X1328918Y519597D01*
X1331882Y517886D01*
X1335188Y517000D01*
X1338611D01*
X1341918Y517886D01*
X1344882Y519597D01*
X1347303Y522018D01*
X1349014Y524982D01*
X1349900Y528288D01*
Y531712D01*
X1349014Y535018D01*
X1347303Y537982D01*
X1344882Y540403D01*
X1341918Y542114D01*
X1338611Y543000D01*
D02*
G37*
G36*
X417812D02*
X414389D01*
X411082Y542114D01*
X408118Y540403D01*
X405697Y537982D01*
X403986Y535018D01*
X403100Y531712D01*
Y528288D01*
X403986Y524982D01*
X405697Y522018D01*
X408118Y519597D01*
X411082Y517886D01*
X414389Y517000D01*
X417812D01*
X421118Y517886D01*
X424082Y519597D01*
X426503Y522018D01*
X428214Y524982D01*
X429100Y528288D01*
Y531712D01*
X428214Y535018D01*
X426503Y537982D01*
X424082Y540403D01*
X421118Y542114D01*
X417812Y543000D01*
D02*
G37*
G36*
X290812D02*
X287388D01*
X284082Y542114D01*
X281118Y540403D01*
X278697Y537982D01*
X276986Y535018D01*
X276100Y531712D01*
Y528288D01*
X276986Y524982D01*
X278697Y522018D01*
X281118Y519597D01*
X284082Y517886D01*
X287388Y517000D01*
X290812D01*
X294118Y517886D01*
X297082Y519597D01*
X299503Y522018D01*
X301214Y524982D01*
X302100Y528288D01*
Y531712D01*
X301214Y535018D01*
X299503Y537982D01*
X297082Y540403D01*
X294118Y542114D01*
X290812Y543000D01*
D02*
G37*
G36*
X1560912Y503000D02*
X1557489D01*
X1554182Y502114D01*
X1551218Y500403D01*
X1548797Y497982D01*
X1547086Y495018D01*
X1546200Y491712D01*
Y488288D01*
X1547086Y484982D01*
X1548797Y482018D01*
X1551218Y479597D01*
X1554182Y477886D01*
X1557489Y477000D01*
X1560912D01*
X1564218Y477886D01*
X1567182Y479597D01*
X1569603Y482018D01*
X1571314Y484982D01*
X1572200Y488288D01*
Y491712D01*
X1571314Y495018D01*
X1569603Y497982D01*
X1567182Y500403D01*
X1564218Y502114D01*
X1560912Y503000D01*
D02*
G37*
G36*
X1465612D02*
X1462189D01*
X1458882Y502114D01*
X1455918Y500403D01*
X1453497Y497982D01*
X1451786Y495018D01*
X1450900Y491712D01*
Y488288D01*
X1451786Y484982D01*
X1453497Y482018D01*
X1455918Y479597D01*
X1458882Y477886D01*
X1462189Y477000D01*
X1465612D01*
X1468918Y477886D01*
X1471882Y479597D01*
X1474303Y482018D01*
X1476014Y484982D01*
X1476900Y488288D01*
Y491712D01*
X1476014Y495018D01*
X1474303Y497982D01*
X1471882Y500403D01*
X1468918Y502114D01*
X1465612Y503000D01*
D02*
G37*
G36*
X1338611D02*
X1335188D01*
X1331882Y502114D01*
X1328918Y500403D01*
X1326497Y497982D01*
X1324786Y495018D01*
X1323900Y491712D01*
Y488288D01*
X1324786Y484982D01*
X1326497Y482018D01*
X1328918Y479597D01*
X1331882Y477886D01*
X1335188Y477000D01*
X1338611D01*
X1341918Y477886D01*
X1344882Y479597D01*
X1347303Y482018D01*
X1349014Y484982D01*
X1349900Y488288D01*
Y491712D01*
X1349014Y495018D01*
X1347303Y497982D01*
X1344882Y500403D01*
X1341918Y502114D01*
X1338611Y503000D01*
D02*
G37*
G36*
X513111D02*
X509688D01*
X506382Y502114D01*
X503418Y500403D01*
X500997Y497982D01*
X499286Y495018D01*
X498400Y491712D01*
Y488288D01*
X499286Y484982D01*
X500997Y482018D01*
X503418Y479597D01*
X506382Y477886D01*
X509688Y477000D01*
X513111D01*
X516418Y477886D01*
X519382Y479597D01*
X521803Y482018D01*
X523514Y484982D01*
X524400Y488288D01*
Y491712D01*
X523514Y495018D01*
X521803Y497982D01*
X519382Y500403D01*
X516418Y502114D01*
X513111Y503000D01*
D02*
G37*
G36*
X417812D02*
X414389D01*
X411082Y502114D01*
X408118Y500403D01*
X405697Y497982D01*
X403986Y495018D01*
X403100Y491712D01*
Y488288D01*
X403986Y484982D01*
X405697Y482018D01*
X408118Y479597D01*
X411082Y477886D01*
X414389Y477000D01*
X417812D01*
X421118Y477886D01*
X424082Y479597D01*
X426503Y482018D01*
X428214Y484982D01*
X429100Y488288D01*
Y491712D01*
X428214Y495018D01*
X426503Y497982D01*
X424082Y500403D01*
X421118Y502114D01*
X417812Y503000D01*
D02*
G37*
G36*
X290812D02*
X287388D01*
X284082Y502114D01*
X281118Y500403D01*
X278697Y497982D01*
X276986Y495018D01*
X276100Y491712D01*
Y488288D01*
X276986Y484982D01*
X278697Y482018D01*
X281118Y479597D01*
X284082Y477886D01*
X287388Y477000D01*
X290812D01*
X294118Y477886D01*
X297082Y479597D01*
X299503Y482018D01*
X301214Y484982D01*
X302100Y488288D01*
Y491712D01*
X301214Y495018D01*
X299503Y497982D01*
X297082Y500403D01*
X294118Y502114D01*
X290812Y503000D01*
D02*
G37*
G36*
X1339400Y462789D02*
Y452500D01*
X1349689D01*
X1349014Y455018D01*
X1347303Y457982D01*
X1344882Y460403D01*
X1341918Y462114D01*
X1339400Y462789D01*
D02*
G37*
G36*
X1334400D02*
X1331882Y462114D01*
X1328918Y460403D01*
X1326497Y457982D01*
X1324786Y455018D01*
X1324111Y452500D01*
X1334400D01*
Y462789D01*
D02*
G37*
G36*
X291600D02*
Y452500D01*
X301889D01*
X301214Y455018D01*
X299503Y457982D01*
X297082Y460403D01*
X294118Y462114D01*
X291600Y462789D01*
D02*
G37*
G36*
X286600D02*
X284082Y462114D01*
X281118Y460403D01*
X278697Y457982D01*
X276986Y455018D01*
X276311Y452500D01*
X286600D01*
Y462789D01*
D02*
G37*
G36*
X301889Y447500D02*
X291600D01*
Y437211D01*
X294118Y437886D01*
X297082Y439597D01*
X299503Y442018D01*
X301214Y444982D01*
X301889Y447500D01*
D02*
G37*
G36*
X1334400Y447500D02*
X1324111D01*
X1324786Y444982D01*
X1326497Y442018D01*
X1328918Y439597D01*
X1331882Y437886D01*
X1334400Y437211D01*
Y447500D01*
D02*
G37*
G36*
X1349689D02*
X1339400D01*
Y437211D01*
X1341918Y437886D01*
X1344882Y439597D01*
X1347303Y442018D01*
X1349014Y444982D01*
X1349689Y447500D01*
D02*
G37*
G36*
X286600Y447500D02*
X276311D01*
X276986Y444982D01*
X278697Y442018D01*
X281118Y439597D01*
X284082Y437886D01*
X286600Y437211D01*
Y447500D01*
D02*
G37*
G36*
X1465612Y463000D02*
X1462189D01*
X1458882Y462114D01*
X1455918Y460403D01*
X1453497Y457982D01*
X1451786Y455018D01*
X1450900Y451712D01*
Y448288D01*
X1451786Y444982D01*
X1453497Y442018D01*
X1455918Y439597D01*
X1458882Y437886D01*
X1462189Y437000D01*
X1465612D01*
X1468918Y437886D01*
X1471882Y439597D01*
X1474303Y442018D01*
X1476014Y444982D01*
X1476900Y448288D01*
Y451712D01*
X1476014Y455018D01*
X1474303Y457982D01*
X1471882Y460403D01*
X1468918Y462114D01*
X1465612Y463000D01*
D02*
G37*
G36*
X417812D02*
X414389D01*
X411082Y462114D01*
X408118Y460403D01*
X405697Y457982D01*
X403986Y455018D01*
X403100Y451712D01*
Y448288D01*
X403986Y444982D01*
X405697Y442018D01*
X408118Y439597D01*
X411082Y437886D01*
X414389Y437000D01*
X417812D01*
X421118Y437886D01*
X424082Y439597D01*
X426503Y442018D01*
X428214Y444982D01*
X429100Y448288D01*
Y451712D01*
X428214Y455018D01*
X426503Y457982D01*
X424082Y460403D01*
X421118Y462114D01*
X417812Y463000D01*
D02*
G37*
G36*
X1465612Y423000D02*
X1462189D01*
X1458882Y422114D01*
X1455918Y420403D01*
X1453497Y417982D01*
X1451786Y415018D01*
X1450900Y411712D01*
Y408288D01*
X1451786Y404982D01*
X1453497Y402018D01*
X1455918Y399597D01*
X1458882Y397886D01*
X1462189Y397000D01*
X1465612D01*
X1468918Y397886D01*
X1471882Y399597D01*
X1474303Y402018D01*
X1476014Y404982D01*
X1476900Y408288D01*
Y411712D01*
X1476014Y415018D01*
X1474303Y417982D01*
X1471882Y420403D01*
X1468918Y422114D01*
X1465612Y423000D01*
D02*
G37*
G36*
X1338611D02*
X1335188D01*
X1331882Y422114D01*
X1328918Y420403D01*
X1326497Y417982D01*
X1324786Y415018D01*
X1323900Y411712D01*
Y408288D01*
X1324786Y404982D01*
X1326497Y402018D01*
X1328918Y399597D01*
X1331882Y397886D01*
X1335188Y397000D01*
X1338611D01*
X1341918Y397886D01*
X1344882Y399597D01*
X1347303Y402018D01*
X1349014Y404982D01*
X1349900Y408288D01*
Y411712D01*
X1349014Y415018D01*
X1347303Y417982D01*
X1344882Y420403D01*
X1341918Y422114D01*
X1338611Y423000D01*
D02*
G37*
G36*
X417812D02*
X414389D01*
X411082Y422114D01*
X408118Y420403D01*
X405697Y417982D01*
X403986Y415018D01*
X403100Y411712D01*
Y408288D01*
X403986Y404982D01*
X405697Y402018D01*
X408118Y399597D01*
X411082Y397886D01*
X414389Y397000D01*
X417812D01*
X421118Y397886D01*
X424082Y399597D01*
X426503Y402018D01*
X428214Y404982D01*
X429100Y408288D01*
Y411712D01*
X428214Y415018D01*
X426503Y417982D01*
X424082Y420403D01*
X421118Y422114D01*
X417812Y423000D01*
D02*
G37*
G36*
X290812D02*
X287388D01*
X284082Y422114D01*
X281118Y420403D01*
X278697Y417982D01*
X276986Y415018D01*
X276100Y411712D01*
Y408288D01*
X276986Y404982D01*
X278697Y402018D01*
X281118Y399597D01*
X284082Y397886D01*
X287388Y397000D01*
X290812D01*
X294118Y397886D01*
X297082Y399597D01*
X299503Y402018D01*
X301214Y404982D01*
X302100Y408288D01*
Y411712D01*
X301214Y415018D01*
X299503Y417982D01*
X297082Y420403D01*
X294118Y422114D01*
X290812Y423000D01*
D02*
G37*
G36*
X1560912Y383000D02*
X1557489D01*
X1554182Y382114D01*
X1551218Y380403D01*
X1548797Y377982D01*
X1547086Y375018D01*
X1546200Y371712D01*
Y368288D01*
X1547086Y364982D01*
X1548797Y362018D01*
X1551218Y359597D01*
X1554182Y357886D01*
X1557489Y357000D01*
X1560912D01*
X1564218Y357886D01*
X1567182Y359597D01*
X1569603Y362018D01*
X1571314Y364982D01*
X1572200Y368288D01*
Y371712D01*
X1571314Y375018D01*
X1569603Y377982D01*
X1567182Y380403D01*
X1564218Y382114D01*
X1560912Y383000D01*
D02*
G37*
G36*
X1465612D02*
X1462189D01*
X1458882Y382114D01*
X1455918Y380403D01*
X1453497Y377982D01*
X1451786Y375018D01*
X1450900Y371712D01*
Y368288D01*
X1451786Y364982D01*
X1453497Y362018D01*
X1455918Y359597D01*
X1458882Y357886D01*
X1462189Y357000D01*
X1465612D01*
X1468918Y357886D01*
X1471882Y359597D01*
X1474303Y362018D01*
X1476014Y364982D01*
X1476900Y368288D01*
Y371712D01*
X1476014Y375018D01*
X1474303Y377982D01*
X1471882Y380403D01*
X1468918Y382114D01*
X1465612Y383000D01*
D02*
G37*
G36*
X1338611D02*
X1335188D01*
X1331882Y382114D01*
X1328918Y380403D01*
X1326497Y377982D01*
X1324786Y375018D01*
X1323900Y371712D01*
Y368288D01*
X1324786Y364982D01*
X1326497Y362018D01*
X1328918Y359597D01*
X1331882Y357886D01*
X1335188Y357000D01*
X1338611D01*
X1341918Y357886D01*
X1344882Y359597D01*
X1347303Y362018D01*
X1349014Y364982D01*
X1349900Y368288D01*
Y371712D01*
X1349014Y375018D01*
X1347303Y377982D01*
X1344882Y380403D01*
X1341918Y382114D01*
X1338611Y383000D01*
D02*
G37*
G36*
X513111D02*
X509688D01*
X506382Y382114D01*
X503418Y380403D01*
X500997Y377982D01*
X499286Y375018D01*
X498400Y371712D01*
Y368288D01*
X499286Y364982D01*
X500997Y362018D01*
X503418Y359597D01*
X506382Y357886D01*
X509688Y357000D01*
X513111D01*
X516418Y357886D01*
X519382Y359597D01*
X521803Y362018D01*
X523514Y364982D01*
X524400Y368288D01*
Y371712D01*
X523514Y375018D01*
X521803Y377982D01*
X519382Y380403D01*
X516418Y382114D01*
X513111Y383000D01*
D02*
G37*
G36*
X417812D02*
X414389D01*
X411082Y382114D01*
X408118Y380403D01*
X405697Y377982D01*
X403986Y375018D01*
X403100Y371712D01*
Y368288D01*
X403986Y364982D01*
X405697Y362018D01*
X408118Y359597D01*
X411082Y357886D01*
X414389Y357000D01*
X417812D01*
X421118Y357886D01*
X424082Y359597D01*
X426503Y362018D01*
X428214Y364982D01*
X429100Y368288D01*
Y371712D01*
X428214Y375018D01*
X426503Y377982D01*
X424082Y380403D01*
X421118Y382114D01*
X417812Y383000D01*
D02*
G37*
G36*
X290812D02*
X287388D01*
X284082Y382114D01*
X281118Y380403D01*
X278697Y377982D01*
X276986Y375018D01*
X276100Y371712D01*
Y368288D01*
X276986Y364982D01*
X278697Y362018D01*
X281118Y359597D01*
X284082Y357886D01*
X287388Y357000D01*
X290812D01*
X294118Y357886D01*
X297082Y359597D01*
X299503Y362018D01*
X301214Y364982D01*
X302100Y368288D01*
Y371712D01*
X301214Y375018D01*
X299503Y377982D01*
X297082Y380403D01*
X294118Y382114D01*
X290812Y383000D01*
D02*
G37*
G36*
X1056865Y325050D02*
X1054535D01*
X1052284Y324447D01*
X1050266Y323282D01*
X1048618Y321634D01*
X1047453Y319616D01*
X1046850Y317365D01*
Y315035D01*
X1047453Y312784D01*
X1048618Y310766D01*
X1050266Y309118D01*
X1052284Y307953D01*
X1054535Y307350D01*
X1056865D01*
X1059116Y307953D01*
X1061134Y309118D01*
X1062782Y310766D01*
X1063947Y312784D01*
X1064550Y315035D01*
Y317365D01*
X1063947Y319616D01*
X1062782Y321634D01*
X1061134Y323282D01*
X1059116Y324447D01*
X1056865Y325050D01*
D02*
G37*
G36*
X1561613Y344500D02*
X1556787D01*
X1552054Y343559D01*
X1547595Y341712D01*
X1543582Y339030D01*
X1540170Y335618D01*
X1537488Y331605D01*
X1535641Y327146D01*
X1534700Y322413D01*
Y317587D01*
X1535641Y312854D01*
X1537488Y308395D01*
X1540170Y304382D01*
X1543582Y300970D01*
X1547595Y298288D01*
X1552054Y296441D01*
X1556787Y295500D01*
X1561613D01*
X1566346Y296441D01*
X1570805Y298288D01*
X1574818Y300970D01*
X1578230Y304382D01*
X1580912Y308395D01*
X1582758Y312854D01*
X1583700Y317587D01*
Y322413D01*
X1582758Y327146D01*
X1580912Y331605D01*
X1578230Y335618D01*
X1574818Y339030D01*
X1570805Y341712D01*
X1566346Y343559D01*
X1561613Y344500D01*
D02*
G37*
G36*
X1466313D02*
X1461487D01*
X1456754Y343559D01*
X1452295Y341712D01*
X1448282Y339030D01*
X1444870Y335618D01*
X1442188Y331605D01*
X1440341Y327146D01*
X1439400Y322413D01*
Y317587D01*
X1440341Y312854D01*
X1442188Y308395D01*
X1444870Y304382D01*
X1448282Y300970D01*
X1452295Y298288D01*
X1456754Y296441D01*
X1461487Y295500D01*
X1466313D01*
X1471046Y296441D01*
X1475505Y298288D01*
X1479518Y300970D01*
X1482930Y304382D01*
X1485612Y308395D01*
X1487458Y312854D01*
X1488400Y317587D01*
Y322413D01*
X1487458Y327146D01*
X1485612Y331605D01*
X1482930Y335618D01*
X1479518Y339030D01*
X1475505Y341712D01*
X1471046Y343559D01*
X1466313Y344500D01*
D02*
G37*
G36*
X1339313D02*
X1334487D01*
X1329754Y343559D01*
X1325295Y341712D01*
X1321282Y339030D01*
X1317870Y335618D01*
X1315188Y331605D01*
X1313342Y327146D01*
X1312400Y322413D01*
Y317587D01*
X1313342Y312854D01*
X1315188Y308395D01*
X1317870Y304382D01*
X1321282Y300970D01*
X1325295Y298288D01*
X1329754Y296441D01*
X1334487Y295500D01*
X1339313D01*
X1344046Y296441D01*
X1348505Y298288D01*
X1352518Y300970D01*
X1355930Y304382D01*
X1358612Y308395D01*
X1360459Y312854D01*
X1361400Y317587D01*
Y322413D01*
X1360459Y327146D01*
X1358612Y331605D01*
X1355930Y335618D01*
X1352518Y339030D01*
X1348505Y341712D01*
X1344046Y343559D01*
X1339313Y344500D01*
D02*
G37*
G36*
X513813D02*
X508987D01*
X504254Y343559D01*
X499795Y341712D01*
X495782Y339030D01*
X492370Y335618D01*
X489688Y331605D01*
X487841Y327146D01*
X486900Y322413D01*
Y317587D01*
X487841Y312854D01*
X489688Y308395D01*
X492370Y304382D01*
X495782Y300970D01*
X499795Y298288D01*
X504254Y296441D01*
X508987Y295500D01*
X513813D01*
X518546Y296441D01*
X523005Y298288D01*
X527018Y300970D01*
X530430Y304382D01*
X533112Y308395D01*
X534958Y312854D01*
X535900Y317587D01*
Y322413D01*
X534958Y327146D01*
X533112Y331605D01*
X530430Y335618D01*
X527018Y339030D01*
X523005Y341712D01*
X518546Y343559D01*
X513813Y344500D01*
D02*
G37*
G36*
X418513D02*
X413687D01*
X408954Y343559D01*
X404495Y341712D01*
X400482Y339030D01*
X397070Y335618D01*
X394388Y331605D01*
X392542Y327146D01*
X391600Y322413D01*
Y317587D01*
X392542Y312854D01*
X394388Y308395D01*
X397070Y304382D01*
X400482Y300970D01*
X404495Y298288D01*
X408954Y296441D01*
X413687Y295500D01*
X418513D01*
X423246Y296441D01*
X427705Y298288D01*
X431718Y300970D01*
X435130Y304382D01*
X437812Y308395D01*
X439659Y312854D01*
X440600Y317587D01*
Y322413D01*
X439659Y327146D01*
X437812Y331605D01*
X435130Y335618D01*
X431718Y339030D01*
X427705Y341712D01*
X423246Y343559D01*
X418513Y344500D01*
D02*
G37*
G36*
X291513D02*
X286687D01*
X281954Y343559D01*
X277495Y341712D01*
X273482Y339030D01*
X270070Y335618D01*
X267388Y331605D01*
X265541Y327146D01*
X264600Y322413D01*
Y317587D01*
X265541Y312854D01*
X267388Y308395D01*
X270070Y304382D01*
X273482Y300970D01*
X277495Y298288D01*
X281954Y296441D01*
X286687Y295500D01*
X291513D01*
X296246Y296441D01*
X300705Y298288D01*
X304718Y300970D01*
X308130Y304382D01*
X310812Y308395D01*
X312659Y312854D01*
X313600Y317587D01*
Y322413D01*
X312659Y327146D01*
X310812Y331605D01*
X308130Y335618D01*
X304718Y339030D01*
X300705Y341712D01*
X296246Y343559D01*
X291513Y344500D01*
D02*
G37*
G36*
X1056865Y299650D02*
X1054535D01*
X1052284Y299047D01*
X1050266Y297882D01*
X1048618Y296234D01*
X1047453Y294216D01*
X1046850Y291965D01*
Y289635D01*
X1047453Y287384D01*
X1048618Y285366D01*
X1050266Y283718D01*
X1052284Y282553D01*
X1054535Y281950D01*
X1056865D01*
X1059116Y282553D01*
X1061134Y283718D01*
X1062782Y285366D01*
X1063947Y287384D01*
X1064550Y289635D01*
Y291965D01*
X1063947Y294216D01*
X1062782Y296234D01*
X1061134Y297882D01*
X1059116Y299047D01*
X1056865Y299650D01*
D02*
G37*
G36*
X513111Y463000D02*
X509688D01*
X506382Y462114D01*
X503418Y460403D01*
X500997Y457982D01*
X499286Y455018D01*
X498400Y451712D01*
Y448288D01*
X499286Y444982D01*
X500997Y442018D01*
X503418Y439597D01*
X506382Y437886D01*
X509688Y437000D01*
X510071D01*
X510131Y436989D01*
X510667Y436848D01*
X511231Y436656D01*
X511796Y436419D01*
X513111Y435727D01*
X513740Y435331D01*
X515184Y434280D01*
X515932Y433667D01*
X516096Y433579D01*
X517838Y432150D01*
X520513Y430720D01*
Y429280D01*
X517838Y427850D01*
X516265Y426560D01*
X506806Y422228D01*
X506382Y422114D01*
X505708Y421725D01*
X505569Y421661D01*
X505526Y421630D01*
X505476Y421615D01*
X505366Y421527D01*
X503418Y420403D01*
X500997Y417982D01*
X499286Y415018D01*
X498400Y411712D01*
Y408288D01*
X499286Y404982D01*
X500997Y402018D01*
X503418Y399597D01*
X506382Y397886D01*
X509688Y397000D01*
X513111D01*
X516418Y397886D01*
X519382Y399597D01*
X521803Y402018D01*
X523514Y404982D01*
X524400Y408288D01*
Y411712D01*
X523514Y415018D01*
X522959Y415980D01*
X522931Y416086D01*
X521669Y418663D01*
X521253Y419691D01*
X520952Y420593D01*
X520770Y421336D01*
X520696Y421897D01*
X520702Y422251D01*
X520708Y422280D01*
X521258Y422731D01*
X523905Y424146D01*
X526778Y425018D01*
X529747Y425310D01*
X529765Y425306D01*
X608158D01*
X608279Y425330D01*
X614268Y424938D01*
X620275Y423743D01*
X626073Y421775D01*
X631566Y419066D01*
X636657Y415664D01*
X641261Y411626D01*
X645299Y407022D01*
X648701Y401931D01*
X651410Y396438D01*
X653378Y390640D01*
X654573Y384633D01*
X654965Y378644D01*
X654941Y378523D01*
Y352686D01*
X654884D01*
X655347Y345628D01*
X656727Y338691D01*
X659000Y331994D01*
X662129Y325650D01*
X666058Y319769D01*
X670722Y314452D01*
X676039Y309788D01*
X681920Y305858D01*
X688264Y302730D01*
X694961Y300457D01*
X701898Y299077D01*
X708956Y298614D01*
Y298671D01*
X1019370D01*
Y298670D01*
X1021407Y298402D01*
X1022447Y297972D01*
X1023136Y296443D01*
X1022758Y295581D01*
X1022394Y294864D01*
X1022394Y294862D01*
X1022393Y294860D01*
X1022362Y294751D01*
X1022053Y294216D01*
X1021450Y291965D01*
Y289635D01*
X1022053Y287384D01*
X1023218Y285366D01*
X1024866Y283718D01*
X1026884Y282553D01*
X1029135Y281950D01*
X1031465D01*
X1033716Y282553D01*
X1035734Y283718D01*
X1037382Y285366D01*
X1038547Y287384D01*
X1039150Y289635D01*
Y291965D01*
X1038547Y294216D01*
X1037382Y296234D01*
X1035734Y297882D01*
X1034355Y298678D01*
X1034238Y298769D01*
X1034221Y298774D01*
X1034208Y298784D01*
X1033983Y298893D01*
X1033716Y299047D01*
X1033599Y299078D01*
X1031969Y299866D01*
X1031941Y299873D01*
X1031917Y299890D01*
X1029637Y300914D01*
X1029582Y300926D01*
X1029534Y300957D01*
X1029061Y301138D01*
X1028994Y301150D01*
X1028933Y301183D01*
X1028604Y301285D01*
X1028586Y301287D01*
X1026789Y302665D01*
X1026730Y302794D01*
X1026679Y303890D01*
X1026770Y304187D01*
X1029228Y306072D01*
X1029669Y306648D01*
X1029685Y306665D01*
X1029888Y306855D01*
X1030073Y307009D01*
X1030237Y307129D01*
X1030378Y307217D01*
X1030493Y307276D01*
X1030581Y307312D01*
X1030641Y307330D01*
X1030678Y307336D01*
X1030821Y307345D01*
X1030840Y307350D01*
X1039150D01*
Y325050D01*
X1021450D01*
Y308435D01*
X1021208Y308335D01*
X1019104Y308058D01*
X1019100Y308059D01*
X708956D01*
X708853Y308038D01*
X703128Y308413D01*
X697399Y309553D01*
X691868Y311430D01*
X686629Y314014D01*
X681772Y317259D01*
X677381Y321110D01*
X673529Y325502D01*
X670284Y330359D01*
X667701Y335597D01*
X665823Y341129D01*
X664683Y346857D01*
X664308Y352583D01*
X664329Y352686D01*
Y378523D01*
X664390D01*
X663909Y385863D01*
X662474Y393077D01*
X660110Y400042D01*
X656857Y406639D01*
X652770Y412755D01*
X647920Y418285D01*
X642390Y423135D01*
X636274Y427222D01*
X629677Y430475D01*
X622712Y432839D01*
X615498Y434274D01*
X608158Y434755D01*
Y434694D01*
X529765D01*
X529746Y434690D01*
X526778Y434982D01*
X523905Y435854D01*
X521258Y437269D01*
X519729Y438524D01*
X519529Y438805D01*
X519434Y439010D01*
X519407Y439134D01*
X519410Y439236D01*
X519451Y439392D01*
X519578Y439644D01*
X519835Y439992D01*
X520322Y440495D01*
X520400Y440615D01*
X521803Y442018D01*
X523514Y444982D01*
X524400Y448288D01*
Y451712D01*
X523514Y455018D01*
X521803Y457982D01*
X519382Y460403D01*
X516418Y462114D01*
X513111Y463000D01*
D02*
G37*
G36*
X1056865Y274250D02*
X1054535D01*
X1052284Y273647D01*
X1050266Y272482D01*
X1048618Y270834D01*
X1047453Y268816D01*
X1046850Y266565D01*
Y264235D01*
X1047453Y261984D01*
X1048618Y259966D01*
X1050266Y258318D01*
X1052284Y257153D01*
X1054535Y256550D01*
X1056865D01*
X1059116Y257153D01*
X1061134Y258318D01*
X1062782Y259966D01*
X1063947Y261984D01*
X1064550Y264235D01*
Y266565D01*
X1063947Y268816D01*
X1062782Y270834D01*
X1061134Y272482D01*
X1059116Y273647D01*
X1056865Y274250D01*
D02*
G37*
G36*
X1031465D02*
X1029135D01*
X1026884Y273647D01*
X1024866Y272482D01*
X1023218Y270834D01*
X1022053Y268816D01*
X1021450Y266565D01*
Y264235D01*
X1022053Y261984D01*
X1023218Y259966D01*
X1024866Y258318D01*
X1026884Y257153D01*
X1029135Y256550D01*
X1031465D01*
X1033716Y257153D01*
X1035734Y258318D01*
X1037382Y259966D01*
X1038547Y261984D01*
X1039150Y264235D01*
Y266565D01*
X1038547Y268816D01*
X1037382Y270834D01*
X1035734Y272482D01*
X1033716Y273647D01*
X1031465Y274250D01*
D02*
G37*
G36*
X1056865Y248850D02*
X1054535D01*
X1052284Y248247D01*
X1050266Y247082D01*
X1048618Y245434D01*
X1047453Y243416D01*
X1046850Y241165D01*
Y238835D01*
X1047453Y236584D01*
X1048618Y234566D01*
X1050266Y232918D01*
X1052284Y231753D01*
X1054535Y231150D01*
X1056865D01*
X1059116Y231753D01*
X1061134Y232918D01*
X1062782Y234566D01*
X1063947Y236584D01*
X1064550Y238835D01*
Y241165D01*
X1063947Y243416D01*
X1062782Y245434D01*
X1061134Y247082D01*
X1059116Y248247D01*
X1056865Y248850D01*
D02*
G37*
G36*
X1031465D02*
X1029135D01*
X1026884Y248247D01*
X1024866Y247082D01*
X1023218Y245434D01*
X1022053Y243416D01*
X1021450Y241165D01*
Y238835D01*
X1022053Y236584D01*
X1023218Y234566D01*
X1024866Y232918D01*
X1026884Y231753D01*
X1029135Y231150D01*
X1031465D01*
X1033716Y231753D01*
X1035734Y232918D01*
X1037382Y234566D01*
X1038547Y236584D01*
X1039150Y238835D01*
Y241165D01*
X1038547Y243416D01*
X1037382Y245434D01*
X1035734Y247082D01*
X1033716Y248247D01*
X1031465Y248850D01*
D02*
G37*
G36*
X1056865Y223450D02*
X1054535D01*
X1052284Y222847D01*
X1050266Y221682D01*
X1048618Y220034D01*
X1047453Y218016D01*
X1046850Y215765D01*
Y213435D01*
X1047453Y211184D01*
X1048618Y209166D01*
X1050266Y207518D01*
X1052284Y206353D01*
X1054535Y205750D01*
X1056865D01*
X1059116Y206353D01*
X1061134Y207518D01*
X1062782Y209166D01*
X1063947Y211184D01*
X1064550Y213435D01*
Y215765D01*
X1063947Y218016D01*
X1062782Y220034D01*
X1061134Y221682D01*
X1059116Y222847D01*
X1056865Y223450D01*
D02*
G37*
G36*
X1031465D02*
X1029135D01*
X1026884Y222847D01*
X1024866Y221682D01*
X1023218Y220034D01*
X1022053Y218016D01*
X1021450Y215765D01*
Y213435D01*
X1022053Y211184D01*
X1023218Y209166D01*
X1024866Y207518D01*
X1026884Y206353D01*
X1029135Y205750D01*
X1031465D01*
X1033716Y206353D01*
X1035734Y207518D01*
X1037382Y209166D01*
X1038547Y211184D01*
X1039150Y213435D01*
Y215765D01*
X1038547Y218016D01*
X1037382Y220034D01*
X1035734Y221682D01*
X1033716Y222847D01*
X1031465Y223450D01*
D02*
G37*
G36*
X1056865Y198050D02*
X1054535D01*
X1052284Y197447D01*
X1050266Y196282D01*
X1048618Y194634D01*
X1047453Y192616D01*
X1046850Y190365D01*
Y188035D01*
X1047453Y185784D01*
X1048618Y183766D01*
X1050266Y182118D01*
X1052284Y180953D01*
X1054535Y180350D01*
X1056865D01*
X1059116Y180953D01*
X1061134Y182118D01*
X1062782Y183766D01*
X1063947Y185784D01*
X1064550Y188035D01*
Y190365D01*
X1063947Y192616D01*
X1062782Y194634D01*
X1061134Y196282D01*
X1059116Y197447D01*
X1056865Y198050D01*
D02*
G37*
G36*
X1031465D02*
X1029135D01*
X1026884Y197447D01*
X1024866Y196282D01*
X1023218Y194634D01*
X1022053Y192616D01*
X1021450Y190365D01*
Y188035D01*
X1022053Y185784D01*
X1023218Y183766D01*
X1024866Y182118D01*
X1026884Y180953D01*
X1029135Y180350D01*
X1031465D01*
X1033716Y180953D01*
X1035734Y182118D01*
X1037382Y183766D01*
X1038547Y185784D01*
X1039150Y188035D01*
Y190365D01*
X1038547Y192616D01*
X1037382Y194634D01*
X1035734Y196282D01*
X1033716Y197447D01*
X1031465Y198050D01*
D02*
G37*
G36*
X1058200Y172292D02*
Y166300D01*
X1064192D01*
X1063947Y167216D01*
X1062782Y169234D01*
X1061134Y170882D01*
X1059116Y172047D01*
X1058200Y172292D01*
D02*
G37*
G36*
X1032800D02*
Y166300D01*
X1038792D01*
X1038547Y167216D01*
X1037382Y169234D01*
X1035734Y170882D01*
X1033716Y172047D01*
X1032800Y172292D01*
D02*
G37*
G36*
X1053200Y172292D02*
X1052284Y172047D01*
X1050266Y170882D01*
X1048618Y169234D01*
X1047453Y167216D01*
X1047208Y166300D01*
X1053200D01*
Y172292D01*
D02*
G37*
G36*
X1027800D02*
X1026884Y172047D01*
X1024866Y170882D01*
X1023218Y169234D01*
X1022053Y167216D01*
X1021808Y166300D01*
X1027800D01*
Y172292D01*
D02*
G37*
G36*
X1053200Y161300D02*
X1047208D01*
X1047453Y160384D01*
X1048618Y158366D01*
X1050266Y156718D01*
X1052284Y155553D01*
X1053200Y155308D01*
Y161300D01*
D02*
G37*
G36*
X1027800D02*
X1021808D01*
X1022053Y160384D01*
X1023218Y158366D01*
X1024866Y156718D01*
X1026884Y155553D01*
X1027800Y155308D01*
Y161300D01*
D02*
G37*
G36*
X1064192D02*
X1058200D01*
Y155308D01*
X1059116Y155553D01*
X1061134Y156718D01*
X1062782Y158366D01*
X1063947Y160384D01*
X1064192Y161300D01*
D02*
G37*
G36*
X1038792D02*
X1032800D01*
Y155308D01*
X1033716Y155553D01*
X1035734Y156718D01*
X1037382Y158366D01*
X1038547Y160384D01*
X1038792Y161300D01*
D02*
G37*
G36*
X782518Y122000D02*
X777482D01*
X772507Y121212D01*
X767716Y119656D01*
X763228Y117369D01*
X759153Y114408D01*
X755592Y110847D01*
X752631Y106772D01*
X750344Y102284D01*
X748788Y97493D01*
X748000Y92519D01*
Y87481D01*
X748788Y82507D01*
X750344Y77716D01*
X752631Y73228D01*
X755592Y69153D01*
X759153Y65592D01*
X763228Y62631D01*
X767716Y60344D01*
X772507Y58788D01*
X777482Y58000D01*
X782518D01*
X787493Y58788D01*
X792284Y60344D01*
X796772Y62631D01*
X800847Y65592D01*
X804408Y69153D01*
X807369Y73228D01*
X809656Y77716D01*
X811212Y82507D01*
X812000Y87481D01*
Y92519D01*
X811212Y97493D01*
X809656Y102284D01*
X807369Y106772D01*
X804408Y110847D01*
X800847Y114408D01*
X796772Y117369D01*
X792284Y119656D01*
X787493Y121212D01*
X782518Y122000D01*
D02*
G37*
G36*
X62519D02*
X57481D01*
X52507Y121212D01*
X47716Y119656D01*
X43228Y117369D01*
X39153Y114408D01*
X35592Y110847D01*
X32631Y106772D01*
X30344Y102284D01*
X28788Y97493D01*
X28000Y92519D01*
Y87481D01*
X28788Y82507D01*
X30344Y77716D01*
X32631Y73228D01*
X35592Y69153D01*
X39153Y65592D01*
X43228Y62631D01*
X47716Y60344D01*
X52507Y58788D01*
X57481Y58000D01*
X62519D01*
X67493Y58788D01*
X72284Y60344D01*
X76772Y62631D01*
X80847Y65592D01*
X84408Y69153D01*
X87369Y73228D01*
X89656Y77716D01*
X91212Y82507D01*
X92000Y87481D01*
Y92519D01*
X91212Y97493D01*
X89656Y102284D01*
X87369Y106772D01*
X84408Y110847D01*
X80847Y114408D01*
X76772Y117369D01*
X72284Y119656D01*
X67493Y121212D01*
X62519Y122000D01*
D02*
G37*
G36*
X1799819Y120000D02*
X1794782D01*
X1789807Y119212D01*
X1785016Y117656D01*
X1780528Y115369D01*
X1776453Y112408D01*
X1772892Y108847D01*
X1769931Y104772D01*
X1767644Y100284D01*
X1766088Y95493D01*
X1765300Y90519D01*
Y85482D01*
X1766088Y80507D01*
X1767644Y75716D01*
X1769931Y71228D01*
X1772892Y67153D01*
X1776453Y63592D01*
X1780528Y60631D01*
X1785016Y58344D01*
X1789807Y56788D01*
X1794782Y56000D01*
X1799819D01*
X1804793Y56788D01*
X1809584Y58344D01*
X1814072Y60631D01*
X1818147Y63592D01*
X1821708Y67153D01*
X1824669Y71228D01*
X1826956Y75716D01*
X1828512Y80507D01*
X1829300Y85482D01*
Y90519D01*
X1828512Y95493D01*
X1826956Y100284D01*
X1824669Y104772D01*
X1821708Y108847D01*
X1818147Y112408D01*
X1814072Y115369D01*
X1809584Y117656D01*
X1804793Y119212D01*
X1799819Y120000D01*
D02*
G37*
G36*
X1069818Y120000D02*
X1064781D01*
X1059807Y119212D01*
X1055016Y117655D01*
X1050528Y115369D01*
X1046453Y112408D01*
X1042892Y108847D01*
X1039931Y104771D01*
X1037644Y100284D01*
X1036088Y95493D01*
X1035300Y90518D01*
Y85481D01*
X1036088Y80506D01*
X1037644Y75716D01*
X1039931Y71228D01*
X1042892Y67153D01*
X1046453Y63592D01*
X1050528Y60631D01*
X1055016Y58344D01*
X1059807Y56788D01*
X1064781Y56000D01*
X1069818D01*
X1074793Y56788D01*
X1079584Y58344D01*
X1084072Y60631D01*
X1088147Y63592D01*
X1091708Y67153D01*
X1094669Y71228D01*
X1096956Y75716D01*
X1098512Y80506D01*
X1099300Y85481D01*
Y90518D01*
X1098512Y95493D01*
X1096956Y100284D01*
X1094669Y104771D01*
X1091708Y108847D01*
X1088147Y112408D01*
X1084072Y115369D01*
X1079584Y117655D01*
X1074793Y119212D01*
X1069818Y120000D01*
D02*
G37*
%LPD*%
G36*
X1060366Y601367D02*
X1058234Y600613D01*
X1056447Y602391D01*
X1059057Y603229D01*
X1060366Y601367D01*
D02*
G37*
G36*
X1060922Y591926D02*
X1060690Y591672D01*
X1060509Y591445D01*
X1060377Y591244D01*
X1060296Y591070D01*
X1060264Y590923D01*
X1060283Y590803D01*
X1060351Y590709D01*
X1060470Y590643D01*
X1060639Y590602D01*
X1060858Y590589D01*
X1055319D01*
X1055580Y590605D01*
X1055844Y590652D01*
X1056113Y590730D01*
X1056386Y590840D01*
X1056664Y590981D01*
X1056946Y591154D01*
X1057232Y591357D01*
X1057523Y591593D01*
X1057817Y591859D01*
X1058116Y592157D01*
X1060922Y591926D01*
D02*
G37*
G36*
X1566075Y441313D02*
X1565634Y440714D01*
X1565335Y440120D01*
X1565177Y439529D01*
X1565162Y438941D01*
X1565289Y438357D01*
X1565558Y437776D01*
X1565969Y437199D01*
X1566522Y436625D01*
X1567217Y436055D01*
X1565025Y435244D01*
X1564231Y435895D01*
X1562684Y437020D01*
X1561931Y437494D01*
X1560467Y438266D01*
X1559754Y438563D01*
X1559056Y438802D01*
X1558371Y438982D01*
X1557700Y439103D01*
X1566658Y441914D01*
X1566075Y441313D01*
D02*
G37*
G36*
X1567217Y423945D02*
X1566847Y423571D01*
X1566597Y423085D01*
X1566466Y422487D01*
X1566455Y421779D01*
X1566563Y420959D01*
X1566791Y420027D01*
X1567139Y418985D01*
X1567606Y417831D01*
X1568899Y415189D01*
X1554218Y419807D01*
X1565025Y424757D01*
X1567217Y423945D01*
D02*
G37*
G36*
X518275Y441313D02*
X517834Y440714D01*
X517535Y440120D01*
X517377Y439529D01*
X517362Y438941D01*
X517489Y438357D01*
X517758Y437776D01*
X518169Y437199D01*
X518722Y436625D01*
X519417Y436055D01*
X517225Y435244D01*
X516431Y435895D01*
X514884Y437020D01*
X514132Y437494D01*
X512667Y438266D01*
X511954Y438563D01*
X511256Y438802D01*
X510571Y438982D01*
X509900Y439103D01*
X518858Y441914D01*
X518275Y441313D01*
D02*
G37*
G36*
X519417Y423945D02*
X519047Y423571D01*
X518797Y423085D01*
X518666Y422487D01*
X518655Y421779D01*
X518763Y420959D01*
X518991Y420027D01*
X519339Y418985D01*
X519806Y417831D01*
X521099Y415189D01*
X506418Y419807D01*
X517225Y424757D01*
X519417Y423945D01*
D02*
G37*
G36*
X1030438Y309365D02*
X1030175Y309318D01*
X1029909Y309240D01*
X1029640Y309131D01*
X1029368Y308991D01*
X1029093Y308819D01*
X1028816Y308616D01*
X1028536Y308382D01*
X1028253Y308117D01*
X1027968Y307821D01*
X1025211Y308033D01*
X1025435Y308289D01*
X1025610Y308518D01*
X1025737Y308720D01*
X1025816Y308895D01*
X1025846Y309044D01*
X1025827Y309165D01*
X1025761Y309259D01*
X1025646Y309327D01*
X1025482Y309367D01*
X1025270Y309380D01*
X1030699D01*
X1030438Y309365D01*
D02*
G37*
G36*
X1028001Y299337D02*
X1028330Y299235D01*
X1028802Y299053D01*
X1031082Y298030D01*
X1033321Y296948D01*
X1024214Y293943D01*
X1024602Y294710D01*
X1025636Y297065D01*
X1025765Y297476D01*
X1025841Y297815D01*
X1025865Y298082D01*
X1025838Y298278D01*
X1025758Y298403D01*
X1027877Y299163D01*
X1027775Y299301D01*
X1027816Y299359D01*
X1028001Y299337D01*
D02*
G37*
D10*
X1606270Y585258D02*
G03*
X1563258Y628270I-43012J-0D01*
G01*
X1587256Y428365D02*
G03*
X1606270Y447379I0J19014D01*
G01*
X1577565Y428365D02*
G03*
X1559200Y410000I0J-18365D01*
G01*
X1160462Y628270D02*
G03*
X1143730Y611538I0J-16732D01*
G01*
X1130192Y598000D02*
G03*
X1143730Y611538I0J13538D01*
G01*
X1055700Y609200D02*
G03*
X1066900Y598000I11200J0D01*
G01*
X1603000Y585258D02*
G03*
X1563258Y625000I-39742J-0D01*
G01*
X1587256Y431635D02*
G03*
X1603000Y447379I0J15744D01*
G01*
X1559200Y450000D02*
G03*
X1577565Y431635I18365J0D01*
G01*
X1160462Y625000D02*
G03*
X1147000Y611538I0J-13462D01*
G01*
X1130192Y594730D02*
G03*
X1147000Y611538I0J16808D01*
G01*
X1066630Y594730D02*
G03*
X1055700Y583800I0J-10930D01*
G01*
X658000Y352686D02*
G03*
X708956Y301730I50956J0D01*
G01*
X529765Y428365D02*
G03*
X511400Y410000I0J-18365D01*
G01*
X658000Y378523D02*
G03*
X608158Y428365I-49842J0D01*
G01*
X1030300Y290800D02*
G03*
X1019370Y301730I-10930J0D01*
G01*
X661270Y352686D02*
G03*
X708956Y305000I47686J0D01*
G01*
X511400Y450000D02*
G03*
X529765Y431635I18365J0D01*
G01*
X661270Y378523D02*
G03*
X608158Y431635I-53112J0D01*
G01*
X1019100Y305000D02*
G03*
X1030300Y316200I0J11200D01*
G01*
X1606270Y585258D02*
Y585258D01*
Y447379D02*
Y585258D01*
X1577565Y428365D02*
X1587256D01*
X1160462Y628270D02*
X1563258D01*
X1066900Y598000D02*
X1130192D01*
X1603000Y585258D02*
Y585258D01*
Y447379D02*
Y585258D01*
X1577565Y431635D02*
X1587256D01*
X1160462Y625000D02*
X1563258D01*
X1066630Y594730D02*
X1130192D01*
X658000Y352686D02*
Y378523D01*
X529765Y428365D02*
X608158D01*
X708956Y301730D02*
X1019370D01*
X661270Y352686D02*
Y378523D01*
X708956Y305000D02*
X1019100D01*
X529765Y431635D02*
X608158D01*
D16*
X1067300Y824600D02*
D03*
X550000Y50000D02*
D03*
Y850000D02*
D03*
X1350000Y50000D02*
D03*
Y850000D02*
D03*
X50000Y450000D02*
D03*
X1830000D02*
D03*
X1797300Y824600D02*
D03*
X60000Y810000D02*
D03*
Y90000D02*
D03*
X1067300Y88000D02*
D03*
X1797300Y88000D02*
D03*
X780000Y90000D02*
D03*
Y810000D02*
D03*
D17*
X1030300Y736200D02*
D03*
X1055700D02*
D03*
X1030300Y710800D02*
D03*
X1055700D02*
D03*
X1030300Y685400D02*
D03*
X1055700D02*
D03*
X1030300Y660000D02*
D03*
X1055700D02*
D03*
X1030300Y634600D02*
D03*
X1055700D02*
D03*
X1030300Y609200D02*
D03*
X1055700D02*
D03*
X1030300Y583800D02*
D03*
X1055700Y163800D02*
D03*
X1030300D02*
D03*
X1055700Y189200D02*
D03*
X1030300D02*
D03*
X1055700Y214600D02*
D03*
X1030300D02*
D03*
X1055700Y240000D02*
D03*
X1030300D02*
D03*
X1055700Y265400D02*
D03*
X1030300D02*
D03*
X1055700Y290800D02*
D03*
X1030300D02*
D03*
X1055700Y316200D02*
D03*
D18*
X1055700Y583800D02*
D03*
X1030300Y316200D02*
D03*
D19*
X511400Y450000D02*
D03*
Y410000D02*
D03*
Y370000D02*
D03*
Y490000D02*
D03*
Y530000D02*
D03*
X416100Y450000D02*
D03*
Y490000D02*
D03*
Y530000D02*
D03*
Y410000D02*
D03*
Y370000D02*
D03*
X289100Y450000D02*
D03*
Y410000D02*
D03*
Y370000D02*
D03*
Y490000D02*
D03*
Y530000D02*
D03*
X1336900D02*
D03*
Y490000D02*
D03*
Y370000D02*
D03*
Y410000D02*
D03*
Y450000D02*
D03*
X1559200Y530000D02*
D03*
Y490000D02*
D03*
Y370000D02*
D03*
Y410000D02*
D03*
Y450000D02*
D03*
X1463900Y370000D02*
D03*
Y410000D02*
D03*
Y530000D02*
D03*
Y490000D02*
D03*
Y450000D02*
D03*
D20*
X511400Y320000D02*
D03*
Y580000D02*
D03*
X416100D02*
D03*
Y320000D02*
D03*
X289100D02*
D03*
Y580000D02*
D03*
X1336900D02*
D03*
Y320000D02*
D03*
X1559200Y580000D02*
D03*
Y320000D02*
D03*
X1463900D02*
D03*
Y580000D02*
D03*
M02*
