G04*
G04 #@! TF.GenerationSoftware,Altium Limited,Altium Designer,24.1.2 (44)*
G04*
G04 Layer_Color=4660084*
%FSLAX44Y44*%
%MOMM*%
G71*
G04*
G04 #@! TF.SameCoordinates,25B33BB7-FC16-40E5-A940-A1AB8D69444A*
G04*
G04*
G04 #@! TF.FilePolarity,Negative*
G04*
G01*
G75*
%ADD11C,6.2032*%
%ADD12C,1.5732*%
%ADD13R,1.5732X1.5732*%
%ADD14C,2.4032*%
%ADD15C,4.7032*%
G36*
X599151Y94000D02*
X600136Y94000D01*
X602068Y93616D01*
X603887Y92862D01*
X605525Y91768D01*
X606918Y90375D01*
X608013Y88737D01*
X608766Y86917D01*
X609151Y84985D01*
X609151Y84000D01*
X609151D01*
Y0D01*
X521445D01*
X521445Y84000D01*
X521445Y84985D01*
X521829Y86917D01*
X522583Y88737D01*
X523678Y90375D01*
X525071Y91768D01*
X526708Y92862D01*
X528528Y93616D01*
X530460Y94000D01*
X531445Y94000D01*
Y94000D01*
X599151Y94000D01*
D02*
G37*
G36*
X94000Y413509D02*
X94000Y412524D01*
X93616Y410592D01*
X92862Y408772D01*
X91768Y407134D01*
X90375Y405742D01*
X88737Y404647D01*
X86917Y403893D01*
X84985Y403509D01*
X84000Y403509D01*
Y403509D01*
X0D01*
Y491215D01*
X84000Y491214D01*
X84985Y491215D01*
X86917Y490830D01*
X88737Y490076D01*
X90375Y488982D01*
X91768Y487589D01*
X92862Y485951D01*
X93616Y484131D01*
X94000Y482200D01*
X94000Y481215D01*
X94000Y481215D01*
X94000Y413509D01*
D02*
G37*
G36*
X532249Y805920D02*
X531264Y805920D01*
X529332Y806304D01*
X527513Y807058D01*
X525875Y808152D01*
X524482Y809545D01*
X523387Y811183D01*
X522634Y813003D01*
X522249Y814935D01*
X522249Y815920D01*
X522249Y815920D01*
Y899920D01*
X609955D01*
X609955Y815920D01*
X609955Y814935D01*
X609570Y813003D01*
X608817Y811183D01*
X607722Y809545D01*
X606329Y808152D01*
X604692Y807058D01*
X602872Y806304D01*
X600940Y805920D01*
X599955Y805920D01*
X599955D01*
X532249D01*
D02*
G37*
G36*
X1347251Y94000D02*
X1348236Y94000D01*
X1350168Y93616D01*
X1351987Y92862D01*
X1353625Y91768D01*
X1355018Y90375D01*
X1356113Y88737D01*
X1356866Y86917D01*
X1357251Y84985D01*
X1357251Y84000D01*
X1357251D01*
Y0D01*
X1269545D01*
X1269545Y84000D01*
X1269545Y84985D01*
X1269930Y86917D01*
X1270683Y88737D01*
X1271778Y90375D01*
X1273171Y91768D01*
X1274808Y92862D01*
X1276628Y93616D01*
X1278560Y94000D01*
X1279545Y94000D01*
Y94000D01*
X1347251Y94000D01*
D02*
G37*
G36*
X1786760Y485511D02*
X1786760Y486496D01*
X1787144Y488427D01*
X1787898Y490247D01*
X1788992Y491885D01*
X1790385Y493278D01*
X1792023Y494372D01*
X1793843Y495126D01*
X1795775Y495510D01*
X1796760Y495510D01*
X1796760Y495511D01*
X1880760D01*
Y407805D01*
X1796760Y407805D01*
X1795775Y407805D01*
X1793843Y408189D01*
X1792023Y408943D01*
X1790385Y410037D01*
X1788992Y411430D01*
X1787898Y413068D01*
X1787144Y414888D01*
X1786760Y416820D01*
X1786760Y417805D01*
D01*
Y485511D01*
D02*
G37*
G36*
X1279249Y806320D02*
X1278264Y806320D01*
X1276332Y806704D01*
X1274512Y807458D01*
X1272875Y808552D01*
X1271482Y809945D01*
X1270387Y811583D01*
X1269634Y813403D01*
X1269249Y815335D01*
X1269249Y816320D01*
X1269249Y816320D01*
Y900320D01*
X1356955D01*
X1356955Y816320D01*
X1356955Y815335D01*
X1356570Y813403D01*
X1355817Y811583D01*
X1354722Y809945D01*
X1353329Y808552D01*
X1351691Y807458D01*
X1349872Y806704D01*
X1347940Y806320D01*
X1346955Y806320D01*
X1346955D01*
X1279249D01*
D02*
G37*
D11*
X566090Y50000D02*
D03*
X1067300Y824600D02*
D03*
X566090Y850000D02*
D03*
X1313900Y50000D02*
D03*
Y850000D02*
D03*
X50000Y450000D02*
D03*
X1830000D02*
D03*
X1797300Y824600D02*
D03*
X60000Y810000D02*
D03*
Y90000D02*
D03*
X1067300Y88000D02*
D03*
X1797300Y88000D02*
D03*
X780000Y90000D02*
D03*
Y810000D02*
D03*
D12*
X1030300Y736200D02*
D03*
X1055700D02*
D03*
X1030300Y710800D02*
D03*
X1055700D02*
D03*
X1030300Y685400D02*
D03*
X1055700D02*
D03*
X1030300Y660000D02*
D03*
X1055700D02*
D03*
X1030300Y634600D02*
D03*
X1055700D02*
D03*
X1030300Y609200D02*
D03*
X1055700D02*
D03*
X1030300Y583800D02*
D03*
X1055700Y163800D02*
D03*
X1030300D02*
D03*
X1055700Y189200D02*
D03*
X1030300D02*
D03*
X1055700Y214600D02*
D03*
X1030300D02*
D03*
X1055700Y240000D02*
D03*
X1030300D02*
D03*
X1055700Y265400D02*
D03*
X1030300D02*
D03*
X1055700Y290800D02*
D03*
X1030300D02*
D03*
X1055700Y316200D02*
D03*
D13*
X1055700Y583800D02*
D03*
X1030300Y316200D02*
D03*
D14*
X511400Y450000D02*
D03*
Y410000D02*
D03*
Y370000D02*
D03*
Y490000D02*
D03*
Y530000D02*
D03*
X416100Y450000D02*
D03*
Y490000D02*
D03*
Y530000D02*
D03*
Y410000D02*
D03*
Y370000D02*
D03*
X289100Y450000D02*
D03*
Y410000D02*
D03*
Y370000D02*
D03*
Y490000D02*
D03*
Y530000D02*
D03*
X1336900D02*
D03*
Y490000D02*
D03*
Y370000D02*
D03*
Y410000D02*
D03*
Y450000D02*
D03*
X1559200Y530000D02*
D03*
Y490000D02*
D03*
Y370000D02*
D03*
Y410000D02*
D03*
Y450000D02*
D03*
X1463900Y370000D02*
D03*
Y410000D02*
D03*
Y530000D02*
D03*
Y490000D02*
D03*
Y450000D02*
D03*
D15*
X511400Y320000D02*
D03*
Y580000D02*
D03*
X416100D02*
D03*
Y320000D02*
D03*
X289100D02*
D03*
Y580000D02*
D03*
X1336900D02*
D03*
Y320000D02*
D03*
X1559200Y580000D02*
D03*
Y320000D02*
D03*
X1463900D02*
D03*
Y580000D02*
D03*
M02*
