G04*
G04 #@! TF.GenerationSoftware,Altium Limited,Altium Designer,24.1.2 (44)*
G04*
G04 Layer_Color=8388736*
%FSLAX44Y44*%
%MOMM*%
G71*
G04*
G04 #@! TF.SameCoordinates,25B33BB7-FC16-40E5-A940-A1AB8D69444A*
G04*
G04*
G04 #@! TF.FilePolarity,Negative*
G04*
G01*
G75*
%ADD11C,6.2032*%
%ADD12C,1.5732*%
%ADD13R,1.5732X1.5732*%
%ADD14C,2.4032*%
%ADD15C,4.7032*%
G36*
X599251Y94000D02*
X600236Y94000D01*
X602168Y93616D01*
X603988Y92862D01*
X605625Y91768D01*
X607018Y90375D01*
X608113Y88737D01*
X608866Y86917D01*
X609251Y84985D01*
X609251Y84000D01*
X609251D01*
Y0D01*
X521545D01*
X521545Y84000D01*
X521545Y84985D01*
X521930Y86917D01*
X522683Y88737D01*
X523778Y90375D01*
X525171Y91768D01*
X526808Y92862D01*
X528628Y93616D01*
X530560Y94000D01*
X531545Y94000D01*
Y94000D01*
X599251Y94000D01*
D02*
G37*
G36*
X94000Y413549D02*
X94000Y412564D01*
X93616Y410632D01*
X92862Y408812D01*
X91768Y407175D01*
X90375Y405782D01*
X88737Y404687D01*
X86917Y403934D01*
X84985Y403549D01*
X84000Y403549D01*
Y403549D01*
X0D01*
Y491255D01*
X84000Y491255D01*
X84985Y491255D01*
X86917Y490870D01*
X88737Y490117D01*
X90375Y489022D01*
X91768Y487629D01*
X92862Y485992D01*
X93616Y484172D01*
X94000Y482240D01*
X94000Y481255D01*
X94000Y481255D01*
X94000Y413549D01*
D02*
G37*
G36*
X532249Y805860D02*
X531264Y805860D01*
X529332Y806244D01*
X527513Y806998D01*
X525875Y808092D01*
X524482Y809485D01*
X523387Y811123D01*
X522634Y812943D01*
X522249Y814875D01*
X522249Y815860D01*
X522249Y815860D01*
Y899860D01*
X609955D01*
X609955Y815860D01*
X609955Y814875D01*
X609570Y812943D01*
X608817Y811123D01*
X607722Y809485D01*
X606329Y808092D01*
X604692Y806998D01*
X602872Y806244D01*
X600940Y805860D01*
X599955Y805860D01*
X599955D01*
X532249D01*
D02*
G37*
G36*
X1347351Y94000D02*
X1348336Y94000D01*
X1350268Y93616D01*
X1352088Y92862D01*
X1353725Y91768D01*
X1355118Y90375D01*
X1356213Y88737D01*
X1356966Y86917D01*
X1357351Y84985D01*
X1357351Y84000D01*
X1357351D01*
Y0D01*
X1269645D01*
X1269645Y84000D01*
X1269645Y84985D01*
X1270030Y86917D01*
X1270783Y88737D01*
X1271878Y90375D01*
X1273271Y91768D01*
X1274908Y92862D01*
X1276728Y93616D01*
X1278660Y94000D01*
X1279645Y94000D01*
Y94000D01*
X1347351Y94000D01*
D02*
G37*
G36*
X1785860Y485551D02*
X1785860Y486536D01*
X1786244Y488468D01*
X1786998Y490288D01*
X1788092Y491925D01*
X1789485Y493318D01*
X1791123Y494413D01*
X1792943Y495166D01*
X1794875Y495551D01*
X1795860Y495551D01*
X1795860Y495551D01*
X1879860D01*
Y407845D01*
X1795860Y407845D01*
X1794875Y407845D01*
X1792943Y408229D01*
X1791123Y408983D01*
X1789485Y410078D01*
X1788092Y411471D01*
X1786998Y413108D01*
X1786244Y414928D01*
X1785860Y416860D01*
X1785860Y417845D01*
D01*
Y485551D01*
D02*
G37*
G36*
X1279349Y806360D02*
X1278364Y806360D01*
X1276432Y806744D01*
X1274613Y807498D01*
X1272975Y808592D01*
X1271582Y809985D01*
X1270487Y811623D01*
X1269734Y813443D01*
X1269349Y815375D01*
X1269349Y816360D01*
X1269349Y816360D01*
Y900360D01*
X1357055D01*
X1357055Y816360D01*
X1357055Y815375D01*
X1356670Y813443D01*
X1355917Y811623D01*
X1354822Y809985D01*
X1353429Y808592D01*
X1351792Y807498D01*
X1349972Y806744D01*
X1348040Y806360D01*
X1347055Y806360D01*
X1347055D01*
X1279349D01*
D02*
G37*
D11*
X566090Y50000D02*
D03*
X1067300Y824600D02*
D03*
X566090Y850000D02*
D03*
X1313900Y50000D02*
D03*
Y850000D02*
D03*
X50000Y450000D02*
D03*
X1830000D02*
D03*
X1797300Y824600D02*
D03*
X60000Y810000D02*
D03*
Y90000D02*
D03*
X1067300Y88000D02*
D03*
X1797300Y88000D02*
D03*
X780000Y90000D02*
D03*
Y810000D02*
D03*
D12*
X1030300Y736200D02*
D03*
X1055700D02*
D03*
X1030300Y710800D02*
D03*
X1055700D02*
D03*
X1030300Y685400D02*
D03*
X1055700D02*
D03*
X1030300Y660000D02*
D03*
X1055700D02*
D03*
X1030300Y634600D02*
D03*
X1055700D02*
D03*
X1030300Y609200D02*
D03*
X1055700D02*
D03*
X1030300Y583800D02*
D03*
X1055700Y163800D02*
D03*
X1030300D02*
D03*
X1055700Y189200D02*
D03*
X1030300D02*
D03*
X1055700Y214600D02*
D03*
X1030300D02*
D03*
X1055700Y240000D02*
D03*
X1030300D02*
D03*
X1055700Y265400D02*
D03*
X1030300D02*
D03*
X1055700Y290800D02*
D03*
X1030300D02*
D03*
X1055700Y316200D02*
D03*
D13*
X1055700Y583800D02*
D03*
X1030300Y316200D02*
D03*
D14*
X511400Y450000D02*
D03*
Y410000D02*
D03*
Y370000D02*
D03*
Y490000D02*
D03*
Y530000D02*
D03*
X416100Y450000D02*
D03*
Y490000D02*
D03*
Y530000D02*
D03*
Y410000D02*
D03*
Y370000D02*
D03*
X289100Y450000D02*
D03*
Y410000D02*
D03*
Y370000D02*
D03*
Y490000D02*
D03*
Y530000D02*
D03*
X1336900D02*
D03*
Y490000D02*
D03*
Y370000D02*
D03*
Y410000D02*
D03*
Y450000D02*
D03*
X1559200Y530000D02*
D03*
Y490000D02*
D03*
Y370000D02*
D03*
Y410000D02*
D03*
Y450000D02*
D03*
X1463900Y370000D02*
D03*
Y410000D02*
D03*
Y530000D02*
D03*
Y490000D02*
D03*
Y450000D02*
D03*
D15*
X511400Y320000D02*
D03*
Y580000D02*
D03*
X416100D02*
D03*
Y320000D02*
D03*
X289100D02*
D03*
Y580000D02*
D03*
X1336900D02*
D03*
Y320000D02*
D03*
X1559200Y580000D02*
D03*
Y320000D02*
D03*
X1463900D02*
D03*
Y580000D02*
D03*
M02*
