G04*
G04 #@! TF.GenerationSoftware,Altium Limited,Altium Designer,24.1.2 (44)*
G04*
G04 Layer_Physical_Order=3*
G04 Layer_Color=39423*
%FSLAX44Y44*%
%MOMM*%
G71*
G04*
G04 #@! TF.SameCoordinates,822C3FA0-46CB-4BB5-8DFA-45C5CE0E6DCB*
G04*
G04*
G04 #@! TF.FilePolarity,Positive*
G04*
G01*
G75*
%ADD17C,1.3700*%
%ADD18R,1.3700X1.3700*%
%ADD19C,2.2000*%
%ADD20C,4.5000*%
%ADD21C,4.4000*%
G36*
X1845786Y896532D02*
X1851430Y895177D01*
X1856792Y892956D01*
X1861740Y889923D01*
X1866154Y886154D01*
X1869923Y881740D01*
X1872956Y876792D01*
X1875177Y871430D01*
X1876532Y865786D01*
X1876974Y860165D01*
X1876941Y860000D01*
Y777900D01*
X1876963Y777790D01*
X1876571Y773808D01*
X1875378Y769874D01*
X1873439Y766247D01*
X1870831Y763069D01*
X1867652Y760461D01*
X1864026Y758522D01*
X1860092Y757329D01*
X1856312Y756957D01*
X1856050Y757009D01*
X1778000D01*
Y757052D01*
X1773883Y756646D01*
X1769925Y755445D01*
X1766277Y753495D01*
X1763079Y750871D01*
X1760455Y747673D01*
X1758505Y744025D01*
X1757304Y740067D01*
X1756898Y735950D01*
X1756941D01*
Y671950D01*
X1756898D01*
X1757304Y667833D01*
X1758505Y663875D01*
X1760455Y660227D01*
X1763079Y657029D01*
X1766277Y654405D01*
X1769925Y652455D01*
X1773883Y651254D01*
X1778000Y650848D01*
Y650891D01*
X1856050D01*
X1856312Y650943D01*
X1860092Y650571D01*
X1864026Y649378D01*
X1867652Y647439D01*
X1870831Y644831D01*
X1873439Y641653D01*
X1875378Y638026D01*
X1876571Y634092D01*
X1876963Y630110D01*
X1876941Y630000D01*
Y270000D01*
X1876963Y269890D01*
X1876571Y265908D01*
X1875378Y261974D01*
X1873439Y258347D01*
X1870831Y255169D01*
X1867652Y252561D01*
X1864026Y250623D01*
X1860092Y249429D01*
X1856312Y249057D01*
X1856050Y249109D01*
X1778000D01*
X1777928Y249095D01*
X1773883Y248696D01*
X1769925Y247495D01*
X1766277Y245545D01*
X1763079Y242921D01*
X1760455Y239723D01*
X1758505Y236075D01*
X1757304Y232117D01*
X1756898Y228000D01*
X1756941D01*
X1756941Y228000D01*
Y164100D01*
X1756898D01*
X1757304Y159983D01*
X1758505Y156025D01*
X1760455Y152377D01*
X1763079Y149179D01*
X1766277Y146555D01*
X1769925Y144605D01*
X1773883Y143404D01*
X1777928Y143006D01*
X1778000Y142991D01*
X1855749D01*
X1856000Y142941D01*
Y142941D01*
X1856033Y142971D01*
X1860092Y142571D01*
X1864026Y141377D01*
X1867652Y139439D01*
X1870831Y136831D01*
X1873439Y133652D01*
X1875378Y130026D01*
X1876571Y126092D01*
X1876963Y122110D01*
X1876941Y122000D01*
Y40000D01*
X1876974Y39835D01*
X1876532Y34214D01*
X1875177Y28570D01*
X1872956Y23208D01*
X1869923Y18260D01*
X1866154Y13846D01*
X1861740Y10077D01*
X1856792Y7044D01*
X1851430Y4823D01*
X1845786Y3468D01*
X1840165Y3026D01*
X1840000Y3059D01*
X1537900D01*
X1537790Y3037D01*
X1533808Y3429D01*
X1529874Y4622D01*
X1526248Y6561D01*
X1523069Y9169D01*
X1520461Y12348D01*
X1518522Y15974D01*
X1517329Y19908D01*
X1516937Y23890D01*
X1516959Y24000D01*
Y102000D01*
X1517002D01*
X1516596Y106117D01*
X1515395Y110075D01*
X1513445Y113723D01*
X1510821Y116921D01*
X1507623Y119545D01*
X1503975Y121495D01*
X1500017Y122696D01*
X1495900Y123102D01*
Y123059D01*
X1431900D01*
Y123102D01*
X1427783Y122696D01*
X1423825Y121495D01*
X1420177Y119545D01*
X1416979Y116921D01*
X1414355Y113723D01*
X1412405Y110075D01*
X1411204Y106117D01*
X1410798Y102000D01*
X1410841D01*
Y24000D01*
X1410863Y23890D01*
X1410471Y19908D01*
X1409277Y15974D01*
X1407339Y12348D01*
X1404731Y9169D01*
X1401552Y6561D01*
X1397926Y4622D01*
X1393992Y3429D01*
X1390010Y3037D01*
X1389900Y3059D01*
X1023800D01*
X1023756Y3050D01*
X1019908Y3429D01*
X1015974Y4622D01*
X1012347Y6561D01*
X1009169Y9169D01*
X1006561Y12348D01*
X1004623Y15974D01*
X1003429Y19908D01*
X1003050Y23756D01*
X1003059Y23800D01*
Y101900D01*
X1003102D01*
X1002696Y106017D01*
X1001495Y109975D01*
X999545Y113623D01*
X996921Y116821D01*
X993723Y119445D01*
X990075Y121395D01*
X986117Y122596D01*
X982569Y122945D01*
X982000Y123059D01*
X898100D01*
Y123102D01*
X893983Y122696D01*
X890025Y121495D01*
X886377Y119545D01*
X883179Y116921D01*
X880555Y113723D01*
X878605Y110075D01*
X877404Y106117D01*
X876998Y102000D01*
X876998D01*
X877051Y100734D01*
Y25254D01*
X877041Y24001D01*
X877041Y24000D01*
D01*
X876954Y22776D01*
X876671Y19908D01*
X875477Y15974D01*
X873539Y12348D01*
X870931Y9169D01*
X867753Y6561D01*
X864126Y4622D01*
X860192Y3429D01*
X857322Y3146D01*
X856100Y3059D01*
X855700Y3059D01*
X854845Y3059D01*
X489667D01*
X485908Y3429D01*
X481974Y4622D01*
X478348Y6561D01*
X475169Y9169D01*
X472561Y12348D01*
X470623Y15974D01*
X469429Y19908D01*
X469112Y23126D01*
X469149Y23310D01*
Y102000D01*
X469055Y102470D01*
X468696Y106117D01*
X467495Y110075D01*
X465545Y113723D01*
X462921Y116921D01*
X459723Y119545D01*
X456075Y121495D01*
X452117Y122696D01*
X448000Y123102D01*
Y123059D01*
X384000D01*
Y123102D01*
X379883Y122696D01*
X375925Y121495D01*
X372277Y119545D01*
X369079Y116921D01*
X366455Y113723D01*
X364505Y110075D01*
X363304Y106117D01*
X362898Y102000D01*
X362941D01*
Y23800D01*
X363017Y23420D01*
X362671Y19908D01*
X361478Y15974D01*
X359539Y12348D01*
X356931Y9169D01*
X353753Y6561D01*
X350126Y4622D01*
X346192Y3429D01*
X342277Y3043D01*
X342200Y3059D01*
X40000D01*
X39835Y3026D01*
X34214Y3468D01*
X28570Y4823D01*
X23208Y7044D01*
X18260Y10077D01*
X13846Y13846D01*
X10077Y18260D01*
X7044Y23208D01*
X4823Y28570D01*
X3468Y34214D01*
X3026Y39835D01*
X3059Y40000D01*
Y122333D01*
X3429Y126092D01*
X4622Y130026D01*
X6561Y133652D01*
X9169Y136831D01*
X12348Y139439D01*
X15974Y141377D01*
X19908Y142571D01*
X23967Y142971D01*
X24000Y142941D01*
Y142941D01*
X24251Y142991D01*
X101970D01*
X102042Y143006D01*
X106087Y143404D01*
X110045Y144605D01*
X113693Y146555D01*
X116891Y149179D01*
X119515Y152377D01*
X121465Y156025D01*
X122666Y159983D01*
X123072Y164100D01*
X123029D01*
Y227849D01*
X123059Y228000D01*
X123102D01*
X122696Y232117D01*
X121495Y236075D01*
X119545Y239723D01*
X116921Y242921D01*
X113723Y245545D01*
X110075Y247495D01*
X106117Y248696D01*
X102072Y249095D01*
X102000Y249109D01*
X24000D01*
X23722Y249053D01*
X19908Y249429D01*
X15974Y250623D01*
X12348Y252561D01*
X9169Y255169D01*
X6561Y258347D01*
X4622Y261974D01*
X3429Y265908D01*
X3037Y269890D01*
X3059Y270000D01*
Y521970D01*
Y630000D01*
X3037Y630110D01*
X3429Y634092D01*
X4622Y638026D01*
X6561Y641653D01*
X9169Y644831D01*
X12348Y647439D01*
X15974Y649378D01*
X19908Y650571D01*
X23967Y650971D01*
X24000Y650941D01*
Y650941D01*
X24251Y650991D01*
X101749D01*
X102000Y650941D01*
Y650898D01*
X106117Y651304D01*
X110075Y652505D01*
X113723Y654455D01*
X116921Y657079D01*
X119545Y660277D01*
X121495Y663925D01*
X122696Y667883D01*
X123102Y672000D01*
X123059D01*
Y736000D01*
X123102D01*
X122696Y740117D01*
X121495Y744075D01*
X119545Y747723D01*
X116921Y750921D01*
X113723Y753545D01*
X110075Y755495D01*
X106117Y756696D01*
X102000Y757102D01*
Y757102D01*
X101965Y757067D01*
X25545Y757384D01*
X24289Y757390D01*
X24276Y757390D01*
X23043Y757478D01*
X20182Y757760D01*
X16244Y758954D01*
X12616Y760894D01*
X9436Y763504D01*
X6826Y766684D01*
X4886Y770313D01*
X3692Y774250D01*
X3410Y777111D01*
X3322Y778344D01*
X3322Y778354D01*
X3317Y779613D01*
X3059Y860010D01*
X3026Y860170D01*
X3468Y865786D01*
X4823Y871430D01*
X7044Y876792D01*
X10077Y881740D01*
X13846Y886154D01*
X18260Y889923D01*
X23208Y892956D01*
X28570Y895177D01*
X34214Y896532D01*
X39835Y896974D01*
X40000Y896941D01*
X342000D01*
X342110Y896963D01*
X346092Y896571D01*
X350026Y895378D01*
X353652Y893439D01*
X356831Y890831D01*
X359439Y887653D01*
X361377Y884026D01*
X362571Y880092D01*
X362963Y876110D01*
X362941Y876000D01*
Y798000D01*
X362898D01*
X363304Y793883D01*
X364505Y789925D01*
X366455Y786277D01*
X369079Y783079D01*
X372277Y780455D01*
X375925Y778505D01*
X379883Y777304D01*
X384000Y776898D01*
Y776941D01*
X448100D01*
Y776898D01*
X452217Y777304D01*
X456175Y778505D01*
X459823Y780455D01*
X463021Y783079D01*
X465645Y786277D01*
X467595Y789925D01*
X468796Y793883D01*
X469202Y798000D01*
X469159D01*
X469149Y798050D01*
Y874734D01*
X469159Y876000D01*
X469248Y877233D01*
X469529Y880092D01*
X470723Y884026D01*
X472661Y887653D01*
X475269Y890831D01*
X478447Y893439D01*
X482074Y895378D01*
X486008Y896571D01*
X489766Y896941D01*
X856100D01*
X856211Y896963D01*
X860192Y896571D01*
X864126Y895378D01*
X867753Y893439D01*
X870931Y890831D01*
X873539Y887653D01*
X875477Y884026D01*
X876671Y880092D01*
X876953Y877233D01*
X877041Y876000D01*
X877041D01*
X877051Y875950D01*
Y798050D01*
X877041Y798000D01*
X876998D01*
X877404Y793883D01*
X878605Y789925D01*
X880555Y786277D01*
X883179Y783079D01*
X886377Y780455D01*
X890025Y778505D01*
X893983Y777304D01*
X898100Y776898D01*
Y776941D01*
X982000D01*
Y776898D01*
X986117Y777304D01*
X990075Y778505D01*
X993723Y780455D01*
X996921Y783079D01*
X999545Y786277D01*
X1001495Y789925D01*
X1002696Y793883D01*
X1003102Y798000D01*
X1003059D01*
Y876000D01*
X1003037Y876110D01*
X1003429Y880092D01*
X1004622Y884026D01*
X1006561Y887653D01*
X1009169Y890831D01*
X1012347Y893439D01*
X1015974Y895378D01*
X1019908Y896571D01*
X1023890Y896963D01*
X1024000Y896941D01*
X1389935D01*
X1390034Y896961D01*
X1393992Y896571D01*
X1397926Y895378D01*
X1401552Y893439D01*
X1404731Y890831D01*
X1407339Y887653D01*
X1409277Y884026D01*
X1410471Y880092D01*
X1410861Y876134D01*
X1410841Y876035D01*
Y798000D01*
X1410798D01*
X1411204Y793883D01*
X1412405Y789925D01*
X1414355Y786277D01*
X1416979Y783079D01*
X1420177Y780455D01*
X1423825Y778505D01*
X1427783Y777304D01*
X1431900Y776898D01*
Y776941D01*
X1495900D01*
Y776898D01*
X1500017Y777304D01*
X1503975Y778505D01*
X1507623Y780455D01*
X1510821Y783079D01*
X1513445Y786277D01*
X1515395Y789925D01*
X1516596Y793883D01*
X1517002Y798000D01*
X1516959D01*
Y876000D01*
X1516937Y876110D01*
X1517329Y880092D01*
X1518522Y884026D01*
X1520461Y887653D01*
X1523069Y890831D01*
X1526248Y893439D01*
X1529874Y895378D01*
X1533808Y896571D01*
X1537790Y896963D01*
X1537900Y896941D01*
X1840000D01*
X1840165Y896974D01*
X1845786Y896532D01*
D02*
G37*
%LPC*%
G36*
X1352364Y874000D02*
X1347636D01*
X1342999Y873078D01*
X1338632Y871268D01*
X1334701Y868642D01*
X1331358Y865299D01*
X1328732Y861368D01*
X1326922Y857001D01*
X1326000Y852364D01*
Y847636D01*
X1326922Y842999D01*
X1328732Y838632D01*
X1331358Y834701D01*
X1334701Y831358D01*
X1338632Y828732D01*
X1342999Y826922D01*
X1347636Y826000D01*
X1352364D01*
X1357000Y826922D01*
X1361368Y828732D01*
X1365299Y831358D01*
X1368642Y834701D01*
X1371268Y838632D01*
X1373078Y842999D01*
X1374000Y847636D01*
Y852364D01*
X1373078Y857001D01*
X1371268Y861368D01*
X1368642Y865299D01*
X1365299Y868642D01*
X1361368Y871268D01*
X1357000Y873078D01*
X1352364Y874000D01*
D02*
G37*
G36*
X552364D02*
X547636D01*
X542999Y873078D01*
X538632Y871268D01*
X534701Y868642D01*
X531358Y865299D01*
X528731Y861368D01*
X526922Y857001D01*
X526000Y852364D01*
Y847636D01*
X526922Y842999D01*
X528731Y838632D01*
X531358Y834701D01*
X534701Y831358D01*
X538632Y828732D01*
X542999Y826922D01*
X547636Y826000D01*
X552364D01*
X557001Y826922D01*
X561368Y828732D01*
X565299Y831358D01*
X568642Y834701D01*
X571269Y838632D01*
X573078Y842999D01*
X574000Y847636D01*
Y852364D01*
X573078Y857001D01*
X571269Y861368D01*
X568642Y865299D01*
X565299Y868642D01*
X561368Y871268D01*
X557001Y873078D01*
X552364Y874000D01*
D02*
G37*
G36*
X1056865Y745050D02*
X1054535D01*
X1052284Y744447D01*
X1050266Y743282D01*
X1048618Y741634D01*
X1047453Y739616D01*
X1046850Y737365D01*
Y735035D01*
X1047453Y732784D01*
X1048618Y730766D01*
X1050075Y729309D01*
X1049805Y728039D01*
X1036195D01*
X1035925Y729309D01*
X1037382Y730766D01*
X1038547Y732784D01*
X1039150Y735035D01*
Y737365D01*
X1038547Y739616D01*
X1037382Y741634D01*
X1035734Y743282D01*
X1033716Y744447D01*
X1031465Y745050D01*
X1029135D01*
X1026884Y744447D01*
X1024866Y743282D01*
X1023218Y741634D01*
X1022053Y739616D01*
X1021450Y737365D01*
Y735035D01*
X1022053Y732784D01*
X1023218Y730766D01*
X1024675Y729309D01*
X1024405Y728039D01*
X1018000D01*
X1017220Y727884D01*
X1016558Y727442D01*
X1016116Y726780D01*
X1015961Y726000D01*
Y697000D01*
X1016116Y696220D01*
X1016558Y695558D01*
X1017220Y695116D01*
X1018000Y694961D01*
X1026881D01*
X1027048Y693691D01*
X1026884Y693647D01*
X1024866Y692482D01*
X1023218Y690834D01*
X1022053Y688816D01*
X1021808Y687900D01*
X1030300D01*
X1038792D01*
X1038547Y688816D01*
X1037382Y690834D01*
X1035734Y692482D01*
X1033716Y693647D01*
X1033552Y693691D01*
X1033719Y694961D01*
X1052281D01*
X1052448Y693691D01*
X1052284Y693647D01*
X1050266Y692482D01*
X1048618Y690834D01*
X1047453Y688816D01*
X1047208Y687900D01*
X1055700D01*
Y682900D01*
X1047208D01*
X1047453Y681984D01*
X1048618Y679966D01*
X1050266Y678318D01*
X1050282Y678309D01*
X1049941Y677039D01*
X1036059D01*
X1035718Y678309D01*
X1035734Y678318D01*
X1037382Y679966D01*
X1038547Y681984D01*
X1038792Y682900D01*
X1030300D01*
X1021808D01*
X1022053Y681984D01*
X1023218Y679966D01*
X1024866Y678318D01*
X1024882Y678309D01*
X1024541Y677039D01*
X1017000D01*
X1016220Y676884D01*
X1015558Y676442D01*
X1015116Y675780D01*
X1014961Y675000D01*
Y646000D01*
X1015116Y645220D01*
X1015558Y644558D01*
X1016220Y644116D01*
X1017000Y643961D01*
X1026356D01*
X1026614Y642691D01*
X1024866Y641682D01*
X1023218Y640034D01*
X1022053Y638016D01*
X1021808Y637100D01*
X1030300D01*
Y634600D01*
D01*
Y637100D01*
X1038792D01*
X1038547Y638016D01*
X1037382Y640034D01*
X1035734Y641682D01*
X1033986Y642691D01*
X1034244Y643961D01*
X1051756D01*
X1052014Y642691D01*
X1050266Y641682D01*
X1048618Y640034D01*
X1047453Y638016D01*
X1047208Y637100D01*
X1055700D01*
X1064192D01*
X1063947Y638016D01*
X1062782Y640034D01*
X1061134Y641682D01*
X1059386Y642691D01*
X1059644Y643961D01*
X1068961D01*
Y625000D01*
X1069116Y624220D01*
X1069558Y623558D01*
X1070220Y623116D01*
X1071000Y622961D01*
X1171961D01*
Y574108D01*
X1170900Y573039D01*
X1044039D01*
Y599000D01*
X1043884Y599780D01*
X1043442Y600442D01*
X1042780Y600884D01*
X1042000Y601039D01*
X1036195D01*
X1035925Y602309D01*
X1037382Y603766D01*
X1038547Y605784D01*
X1038792Y606700D01*
X1030300D01*
X1021808D01*
X1022053Y605784D01*
X1023218Y603766D01*
X1024675Y602309D01*
X1024405Y601039D01*
X1017000D01*
X1016220Y600884D01*
X1015558Y600442D01*
X1015116Y599780D01*
X1014961Y599000D01*
Y542000D01*
X1015116Y541220D01*
X1015558Y540558D01*
X1016220Y540116D01*
X1017000Y539961D01*
X1117961D01*
Y202000D01*
X1118116Y201220D01*
X1118558Y200558D01*
X1119220Y200116D01*
X1120000Y199961D01*
X1652000D01*
X1652780Y200116D01*
X1653442Y200558D01*
X1653884Y201220D01*
X1654039Y202000D01*
Y391000D01*
X1653884Y391780D01*
X1653442Y392442D01*
X1652780Y392884D01*
X1652000Y393039D01*
X1519000D01*
X1518220Y392884D01*
X1517558Y392442D01*
X1517116Y391780D01*
X1516961Y391000D01*
Y350000D01*
X1517116Y349220D01*
X1517558Y348558D01*
X1518220Y348116D01*
X1519000Y347961D01*
X1587961D01*
Y272039D01*
X1299039D01*
Y346892D01*
X1300103Y347961D01*
X1376000D01*
X1376780Y348116D01*
X1377442Y348558D01*
X1377884Y349220D01*
X1378039Y350000D01*
Y390000D01*
X1377884Y390780D01*
X1377442Y391442D01*
X1376780Y391884D01*
X1376000Y392039D01*
X1299039D01*
Y504500D01*
X1299417Y504961D01*
X1376705D01*
X1377486Y505116D01*
X1378147Y505558D01*
X1378589Y506220D01*
X1378745Y507000D01*
Y551665D01*
X1378589Y552445D01*
X1378147Y553107D01*
X1377486Y553549D01*
X1376705Y553704D01*
X1311039D01*
Y726000D01*
X1310884Y726780D01*
X1310442Y727442D01*
X1309780Y727884D01*
X1309000Y728039D01*
X1061595D01*
X1061325Y729309D01*
X1062782Y730766D01*
X1063947Y732784D01*
X1064550Y735035D01*
Y737365D01*
X1063947Y739616D01*
X1062782Y741634D01*
X1061134Y743282D01*
X1059116Y744447D01*
X1056865Y745050D01*
D02*
G37*
G36*
X1064192Y632100D02*
X1058200D01*
Y626108D01*
X1059116Y626353D01*
X1061134Y627518D01*
X1062782Y629166D01*
X1063947Y631184D01*
X1064192Y632100D01*
D02*
G37*
G36*
X1038792D02*
X1032800D01*
Y626108D01*
X1033716Y626353D01*
X1035734Y627518D01*
X1037382Y629166D01*
X1038547Y631184D01*
X1038792Y632100D01*
D02*
G37*
G36*
X1053200D02*
X1047208D01*
X1047453Y631184D01*
X1048618Y629166D01*
X1050266Y627518D01*
X1052284Y626353D01*
X1053200Y626108D01*
Y632100D01*
D02*
G37*
G36*
X1027800D02*
X1021808D01*
X1022053Y631184D01*
X1023218Y629166D01*
X1024866Y627518D01*
X1026884Y626353D01*
X1027800Y626108D01*
Y632100D01*
D02*
G37*
G36*
X1032800Y617692D02*
Y611700D01*
X1038792D01*
X1038547Y612616D01*
X1037382Y614634D01*
X1035734Y616282D01*
X1033716Y617447D01*
X1032800Y617692D01*
D02*
G37*
G36*
X1027800D02*
X1026884Y617447D01*
X1024866Y616282D01*
X1023218Y614634D01*
X1022053Y612616D01*
X1021808Y611700D01*
X1027800D01*
Y617692D01*
D02*
G37*
G36*
X1056865Y618050D02*
X1054535D01*
X1052284Y617447D01*
X1050266Y616282D01*
X1048618Y614634D01*
X1047453Y612616D01*
X1046850Y610365D01*
Y608035D01*
X1047453Y605784D01*
X1048618Y603766D01*
X1050266Y602118D01*
X1052284Y600953D01*
X1054535Y600350D01*
X1056865D01*
X1059116Y600953D01*
X1061134Y602118D01*
X1062782Y603766D01*
X1063947Y605784D01*
X1064550Y608035D01*
Y610365D01*
X1063947Y612616D01*
X1062782Y614634D01*
X1061134Y616282D01*
X1059116Y617447D01*
X1056865Y618050D01*
D02*
G37*
G36*
X1064550Y592650D02*
X1046850D01*
Y574950D01*
X1064550D01*
Y592650D01*
D02*
G37*
G36*
X1561613Y604500D02*
X1556787D01*
X1552054Y603559D01*
X1547595Y601712D01*
X1543582Y599030D01*
X1540170Y595618D01*
X1537488Y591605D01*
X1535641Y587146D01*
X1534700Y582413D01*
Y577587D01*
X1535641Y572854D01*
X1537488Y568395D01*
X1540170Y564382D01*
X1543582Y560970D01*
X1547595Y558288D01*
X1552054Y556441D01*
X1556787Y555500D01*
X1561613D01*
X1566346Y556441D01*
X1570805Y558288D01*
X1574818Y560970D01*
X1578230Y564382D01*
X1580912Y568395D01*
X1582758Y572854D01*
X1583700Y577587D01*
Y582413D01*
X1582758Y587146D01*
X1580912Y591605D01*
X1578230Y595618D01*
X1574818Y599030D01*
X1570805Y601712D01*
X1566346Y603559D01*
X1561613Y604500D01*
D02*
G37*
G36*
X1466313D02*
X1461487D01*
X1456754Y603559D01*
X1452295Y601712D01*
X1448282Y599030D01*
X1444870Y595618D01*
X1442188Y591605D01*
X1440341Y587146D01*
X1439400Y582413D01*
Y577587D01*
X1440341Y572854D01*
X1442188Y568395D01*
X1444870Y564382D01*
X1448282Y560970D01*
X1452295Y558288D01*
X1456754Y556441D01*
X1461487Y555500D01*
X1466313D01*
X1471046Y556441D01*
X1475505Y558288D01*
X1479518Y560970D01*
X1482930Y564382D01*
X1485612Y568395D01*
X1487458Y572854D01*
X1488400Y577587D01*
Y582413D01*
X1487458Y587146D01*
X1485612Y591605D01*
X1482930Y595618D01*
X1479518Y599030D01*
X1475505Y601712D01*
X1471046Y603559D01*
X1466313Y604500D01*
D02*
G37*
G36*
X1339313D02*
X1334487D01*
X1329754Y603559D01*
X1325295Y601712D01*
X1321282Y599030D01*
X1317870Y595618D01*
X1315188Y591605D01*
X1313342Y587146D01*
X1312400Y582413D01*
Y577587D01*
X1313342Y572854D01*
X1315188Y568395D01*
X1317870Y564382D01*
X1321282Y560970D01*
X1325295Y558288D01*
X1329754Y556441D01*
X1334487Y555500D01*
X1339313D01*
X1344046Y556441D01*
X1348505Y558288D01*
X1352518Y560970D01*
X1355930Y564382D01*
X1358612Y568395D01*
X1360459Y572854D01*
X1361400Y577587D01*
Y582413D01*
X1360459Y587146D01*
X1358612Y591605D01*
X1355930Y595618D01*
X1352518Y599030D01*
X1348505Y601712D01*
X1344046Y603559D01*
X1339313Y604500D01*
D02*
G37*
G36*
X513813D02*
X508987D01*
X504254Y603559D01*
X499795Y601712D01*
X495782Y599030D01*
X492370Y595618D01*
X489688Y591605D01*
X487841Y587146D01*
X486900Y582413D01*
Y577587D01*
X487841Y572854D01*
X489688Y568395D01*
X492370Y564382D01*
X495782Y560970D01*
X499795Y558288D01*
X504254Y556441D01*
X508987Y555500D01*
X513813D01*
X518546Y556441D01*
X523005Y558288D01*
X527018Y560970D01*
X530430Y564382D01*
X533112Y568395D01*
X534958Y572854D01*
X535900Y577587D01*
Y582413D01*
X534958Y587146D01*
X533112Y591605D01*
X530430Y595618D01*
X527018Y599030D01*
X523005Y601712D01*
X518546Y603559D01*
X513813Y604500D01*
D02*
G37*
G36*
X418513D02*
X413687D01*
X408954Y603559D01*
X404495Y601712D01*
X400482Y599030D01*
X397070Y595618D01*
X394388Y591605D01*
X392542Y587146D01*
X391600Y582413D01*
Y577587D01*
X392542Y572854D01*
X394388Y568395D01*
X397070Y564382D01*
X400482Y560970D01*
X404495Y558288D01*
X408954Y556441D01*
X413687Y555500D01*
X418513D01*
X423246Y556441D01*
X427705Y558288D01*
X431718Y560970D01*
X435130Y564382D01*
X437812Y568395D01*
X439659Y572854D01*
X440600Y577587D01*
Y582413D01*
X439659Y587146D01*
X437812Y591605D01*
X435130Y595618D01*
X431718Y599030D01*
X427705Y601712D01*
X423246Y603559D01*
X418513Y604500D01*
D02*
G37*
G36*
X291513D02*
X286687D01*
X281954Y603559D01*
X277495Y601712D01*
X273482Y599030D01*
X270070Y595618D01*
X267388Y591605D01*
X265541Y587146D01*
X264600Y582413D01*
Y577587D01*
X265541Y572854D01*
X267388Y568395D01*
X270070Y564382D01*
X273482Y560970D01*
X277495Y558288D01*
X281954Y556441D01*
X286687Y555500D01*
X291513D01*
X296246Y556441D01*
X300705Y558288D01*
X304718Y560970D01*
X308130Y564382D01*
X310812Y568395D01*
X312659Y572854D01*
X313600Y577587D01*
Y582413D01*
X312659Y587146D01*
X310812Y591605D01*
X308130Y595618D01*
X304718Y599030D01*
X300705Y601712D01*
X296246Y603559D01*
X291513Y604500D01*
D02*
G37*
G36*
X328101Y554038D02*
X328101Y554038D01*
X328100Y554038D01*
X163999Y553918D01*
X163600Y553839D01*
X163220Y553763D01*
X163219Y553763D01*
X163218Y553762D01*
X162882Y553537D01*
X162558Y553321D01*
X162558Y553320D01*
X162557Y553320D01*
X162340Y552995D01*
X162116Y552659D01*
X162116Y552659D01*
X162115Y552658D01*
X162040Y552276D01*
X161961Y551879D01*
Y140000D01*
X162116Y139220D01*
X162558Y138558D01*
X163220Y138116D01*
X164000Y137961D01*
X1017000D01*
X1017780Y138116D01*
X1018442Y138558D01*
X1018884Y139220D01*
X1019039Y140000D01*
Y172961D01*
X1025927D01*
X1026267Y171691D01*
X1024866Y170882D01*
X1023218Y169234D01*
X1022053Y167216D01*
X1021450Y164965D01*
Y162635D01*
X1022053Y160384D01*
X1023218Y158366D01*
X1024866Y156718D01*
X1026884Y155553D01*
X1029135Y154950D01*
X1031465D01*
X1033716Y155553D01*
X1035734Y156718D01*
X1037382Y158366D01*
X1038547Y160384D01*
X1039150Y162635D01*
Y164965D01*
X1038547Y167216D01*
X1037382Y169234D01*
X1035734Y170882D01*
X1034333Y171691D01*
X1034673Y172961D01*
X1051327D01*
X1051667Y171691D01*
X1050266Y170882D01*
X1048618Y169234D01*
X1047453Y167216D01*
X1046850Y164965D01*
Y162635D01*
X1047453Y160384D01*
X1048618Y158366D01*
X1050266Y156718D01*
X1052284Y155553D01*
X1054535Y154950D01*
X1056865D01*
X1059116Y155553D01*
X1061134Y156718D01*
X1062782Y158366D01*
X1063947Y160384D01*
X1064550Y162635D01*
Y164965D01*
X1063947Y167216D01*
X1062782Y169234D01*
X1061134Y170882D01*
X1059733Y171691D01*
X1060073Y172961D01*
X1069000D01*
X1069780Y173116D01*
X1070442Y173558D01*
X1070884Y174220D01*
X1071039Y175000D01*
Y202000D01*
X1070884Y202780D01*
X1070442Y203442D01*
X1069780Y203884D01*
X1069000Y204039D01*
X1019039D01*
Y212000D01*
X1018884Y212780D01*
X1018442Y213442D01*
Y213458D01*
X1018884Y214120D01*
X1019039Y214900D01*
Y223961D01*
X1026356D01*
X1026614Y222691D01*
X1024866Y221682D01*
X1023218Y220034D01*
X1022053Y218016D01*
X1021808Y217100D01*
X1030300D01*
X1038792D01*
X1038547Y218016D01*
X1037382Y220034D01*
X1035734Y221682D01*
X1033986Y222691D01*
X1034244Y223961D01*
X1051756D01*
X1052014Y222691D01*
X1050266Y221682D01*
X1048618Y220034D01*
X1047453Y218016D01*
X1047208Y217100D01*
X1055700D01*
X1064192D01*
X1063947Y218016D01*
X1062782Y220034D01*
X1061134Y221682D01*
X1059386Y222691D01*
X1059644Y223961D01*
X1068000D01*
X1068780Y224116D01*
X1069442Y224558D01*
X1069884Y225220D01*
X1070039Y226000D01*
Y253000D01*
X1069884Y253780D01*
X1069442Y254442D01*
X1068780Y254884D01*
X1068000Y255039D01*
X1019039D01*
Y290000D01*
X1018884Y290780D01*
X1018442Y291442D01*
Y291558D01*
X1018884Y292220D01*
X1019039Y293000D01*
Y328922D01*
X1040961D01*
Y306000D01*
X1041116Y305220D01*
X1041558Y304558D01*
X1042220Y304116D01*
X1043000Y303961D01*
X1069000D01*
X1069780Y304116D01*
X1070442Y304558D01*
X1070884Y305220D01*
X1071039Y306000D01*
Y392000D01*
X1070884Y392780D01*
X1070442Y393442D01*
X1069780Y393884D01*
X1069000Y394039D01*
X472000D01*
X471220Y393884D01*
X470558Y393442D01*
X470116Y392780D01*
X469961Y392000D01*
Y349000D01*
X470116Y348220D01*
X470558Y347558D01*
X471220Y347116D01*
X472000Y346961D01*
X549961D01*
Y293000D01*
X548857Y292039D01*
X378039D01*
Y391000D01*
X377884Y391780D01*
X377442Y392442D01*
X376780Y392884D01*
X376000Y393039D01*
X249000D01*
X248039Y394143D01*
Y503961D01*
X286068D01*
X286235Y502691D01*
X284082Y502114D01*
X281118Y500403D01*
X278697Y497982D01*
X276986Y495018D01*
X276311Y492500D01*
X289100D01*
X301889D01*
X301214Y495018D01*
X299503Y497982D01*
X297082Y500403D01*
X294118Y502114D01*
X291965Y502691D01*
X292132Y503961D01*
X329000D01*
X329780Y504116D01*
X330442Y504558D01*
X330884Y505220D01*
X331039Y506000D01*
Y551101D01*
X331039Y551101D01*
X331039Y551102D01*
X330954Y551528D01*
X330884Y551881D01*
X330884Y551881D01*
X330884Y551882D01*
X330672Y552199D01*
X330442Y552543D01*
X330442Y552543D01*
X330441Y552543D01*
X329543Y553441D01*
X329543Y553441D01*
X329543Y553442D01*
X329221Y553656D01*
X328881Y553883D01*
X328881Y553883D01*
X328881Y553883D01*
X328488Y553961D01*
X328101Y554038D01*
D02*
G37*
G36*
X1560912Y543000D02*
X1557489D01*
X1554182Y542114D01*
X1551218Y540403D01*
X1548797Y537982D01*
X1547086Y535018D01*
X1546200Y531712D01*
Y528288D01*
X1547086Y524982D01*
X1548797Y522018D01*
X1551218Y519597D01*
X1554182Y517886D01*
X1557489Y517000D01*
X1560912D01*
X1564218Y517886D01*
X1567182Y519597D01*
X1569603Y522018D01*
X1571314Y524982D01*
X1572200Y528288D01*
Y531712D01*
X1571314Y535018D01*
X1569603Y537982D01*
X1567182Y540403D01*
X1564218Y542114D01*
X1560912Y543000D01*
D02*
G37*
G36*
X1465612D02*
X1462189D01*
X1458882Y542114D01*
X1455918Y540403D01*
X1453497Y537982D01*
X1451786Y535018D01*
X1450900Y531712D01*
Y528288D01*
X1451786Y524982D01*
X1453497Y522018D01*
X1455918Y519597D01*
X1458882Y517886D01*
X1462189Y517000D01*
X1465612D01*
X1468918Y517886D01*
X1471882Y519597D01*
X1474303Y522018D01*
X1476014Y524982D01*
X1476900Y528288D01*
Y531712D01*
X1476014Y535018D01*
X1474303Y537982D01*
X1471882Y540403D01*
X1468918Y542114D01*
X1465612Y543000D01*
D02*
G37*
G36*
X513111D02*
X509688D01*
X506382Y542114D01*
X503418Y540403D01*
X500997Y537982D01*
X499286Y535018D01*
X498400Y531712D01*
Y528288D01*
X499286Y524982D01*
X500997Y522018D01*
X503418Y519597D01*
X506382Y517886D01*
X509688Y517000D01*
X513111D01*
X516418Y517886D01*
X519382Y519597D01*
X521803Y522018D01*
X523514Y524982D01*
X524400Y528288D01*
Y531712D01*
X523514Y535018D01*
X521803Y537982D01*
X519382Y540403D01*
X516418Y542114D01*
X513111Y543000D01*
D02*
G37*
G36*
X417812D02*
X414389D01*
X411082Y542114D01*
X408118Y540403D01*
X405697Y537982D01*
X403986Y535018D01*
X403100Y531712D01*
Y528288D01*
X403986Y524982D01*
X405697Y522018D01*
X408118Y519597D01*
X411082Y517886D01*
X414389Y517000D01*
X417812D01*
X421118Y517886D01*
X424082Y519597D01*
X426503Y522018D01*
X428214Y524982D01*
X429100Y528288D01*
Y531712D01*
X428214Y535018D01*
X426503Y537982D01*
X424082Y540403D01*
X421118Y542114D01*
X417812Y543000D01*
D02*
G37*
G36*
X1339400Y502789D02*
Y492500D01*
X1349689D01*
X1349014Y495018D01*
X1347303Y497982D01*
X1344882Y500403D01*
X1341918Y502114D01*
X1339400Y502789D01*
D02*
G37*
G36*
X1334400Y502789D02*
X1331882Y502114D01*
X1328918Y500403D01*
X1326497Y497982D01*
X1324786Y495018D01*
X1324111Y492500D01*
X1334400D01*
Y502789D01*
D02*
G37*
G36*
X513900Y502789D02*
Y492500D01*
X524189D01*
X523514Y495018D01*
X521803Y497982D01*
X519382Y500403D01*
X516418Y502114D01*
X513900Y502789D01*
D02*
G37*
G36*
X508900D02*
X506382Y502114D01*
X503418Y500403D01*
X500997Y497982D01*
X499286Y495018D01*
X498611Y492500D01*
X508900D01*
Y502789D01*
D02*
G37*
G36*
X1561700D02*
Y492500D01*
X1571989D01*
X1571314Y495018D01*
X1569603Y497982D01*
X1567182Y500403D01*
X1564218Y502114D01*
X1561700Y502789D01*
D02*
G37*
G36*
X1556700D02*
X1554182Y502114D01*
X1551218Y500403D01*
X1548797Y497982D01*
X1547086Y495018D01*
X1546411Y492500D01*
X1556700D01*
Y502789D01*
D02*
G37*
G36*
X1334400Y487500D02*
X1324111D01*
X1324786Y484982D01*
X1326497Y482018D01*
X1328918Y479597D01*
X1331882Y477886D01*
X1334400Y477211D01*
Y487500D01*
D02*
G37*
G36*
X1571989Y487500D02*
X1561700D01*
Y477211D01*
X1564218Y477886D01*
X1567182Y479597D01*
X1569603Y482018D01*
X1571314Y484982D01*
X1571989Y487500D01*
D02*
G37*
G36*
X524189Y487500D02*
X513900D01*
Y477211D01*
X516418Y477886D01*
X519382Y479597D01*
X521803Y482018D01*
X523514Y484982D01*
X524189Y487500D01*
D02*
G37*
G36*
X301889D02*
X291600D01*
Y477211D01*
X294118Y477886D01*
X297082Y479597D01*
X299503Y482018D01*
X301214Y484982D01*
X301889Y487500D01*
D02*
G37*
G36*
X508900D02*
X498611D01*
X499286Y484982D01*
X500997Y482018D01*
X503418Y479597D01*
X506382Y477886D01*
X508900Y477211D01*
Y487500D01*
D02*
G37*
G36*
X286600D02*
X276311D01*
X276986Y484982D01*
X278697Y482018D01*
X281118Y479597D01*
X284082Y477886D01*
X286600Y477211D01*
Y487500D01*
D02*
G37*
G36*
X1556700Y487500D02*
X1546411D01*
X1547086Y484982D01*
X1548797Y482018D01*
X1551218Y479597D01*
X1554182Y477886D01*
X1556700Y477211D01*
Y487500D01*
D02*
G37*
G36*
X1349689Y487500D02*
X1339400D01*
Y477211D01*
X1341918Y477886D01*
X1344882Y479597D01*
X1347303Y482018D01*
X1349014Y484982D01*
X1349689Y487500D01*
D02*
G37*
G36*
X1465612Y503000D02*
X1462189D01*
X1458882Y502114D01*
X1455918Y500403D01*
X1453497Y497982D01*
X1451786Y495018D01*
X1450900Y491712D01*
Y488288D01*
X1451786Y484982D01*
X1453497Y482018D01*
X1455918Y479597D01*
X1458882Y477886D01*
X1462189Y477000D01*
X1465612D01*
X1468918Y477886D01*
X1471882Y479597D01*
X1474303Y482018D01*
X1476014Y484982D01*
X1476900Y488288D01*
Y491712D01*
X1476014Y495018D01*
X1474303Y497982D01*
X1471882Y500403D01*
X1468918Y502114D01*
X1465612Y503000D01*
D02*
G37*
G36*
X417812D02*
X414389D01*
X411082Y502114D01*
X408118Y500403D01*
X405697Y497982D01*
X403986Y495018D01*
X403100Y491712D01*
Y488288D01*
X403986Y484982D01*
X405697Y482018D01*
X408118Y479597D01*
X411082Y477886D01*
X414389Y477000D01*
X417812D01*
X421118Y477886D01*
X424082Y479597D01*
X426503Y482018D01*
X428214Y484982D01*
X429100Y488288D01*
Y491712D01*
X428214Y495018D01*
X426503Y497982D01*
X424082Y500403D01*
X421118Y502114D01*
X417812Y503000D01*
D02*
G37*
G36*
X1560912Y463000D02*
X1557489D01*
X1554182Y462114D01*
X1551218Y460403D01*
X1548797Y457982D01*
X1547086Y455018D01*
X1546200Y451712D01*
Y448288D01*
X1547086Y444982D01*
X1548797Y442018D01*
X1551218Y439597D01*
X1554182Y437886D01*
X1557489Y437000D01*
X1560912D01*
X1564218Y437886D01*
X1567182Y439597D01*
X1569603Y442018D01*
X1571314Y444982D01*
X1572200Y448288D01*
Y451712D01*
X1571314Y455018D01*
X1569603Y457982D01*
X1567182Y460403D01*
X1564218Y462114D01*
X1560912Y463000D01*
D02*
G37*
G36*
X1465612D02*
X1462189D01*
X1458882Y462114D01*
X1455918Y460403D01*
X1453497Y457982D01*
X1451786Y455018D01*
X1450900Y451712D01*
Y448288D01*
X1451786Y444982D01*
X1453497Y442018D01*
X1455918Y439597D01*
X1458882Y437886D01*
X1462189Y437000D01*
X1465612D01*
X1468918Y437886D01*
X1471882Y439597D01*
X1474303Y442018D01*
X1476014Y444982D01*
X1476900Y448288D01*
Y451712D01*
X1476014Y455018D01*
X1474303Y457982D01*
X1471882Y460403D01*
X1468918Y462114D01*
X1465612Y463000D01*
D02*
G37*
G36*
X1338611D02*
X1335188D01*
X1331882Y462114D01*
X1328918Y460403D01*
X1326497Y457982D01*
X1324786Y455018D01*
X1323900Y451712D01*
Y448288D01*
X1324786Y444982D01*
X1326497Y442018D01*
X1328918Y439597D01*
X1331882Y437886D01*
X1335188Y437000D01*
X1338611D01*
X1341918Y437886D01*
X1344882Y439597D01*
X1347303Y442018D01*
X1349014Y444982D01*
X1349900Y448288D01*
Y451712D01*
X1349014Y455018D01*
X1347303Y457982D01*
X1344882Y460403D01*
X1341918Y462114D01*
X1338611Y463000D01*
D02*
G37*
G36*
X513111D02*
X509688D01*
X506382Y462114D01*
X503418Y460403D01*
X500997Y457982D01*
X499286Y455018D01*
X498400Y451712D01*
Y448288D01*
X499286Y444982D01*
X500997Y442018D01*
X503418Y439597D01*
X506382Y437886D01*
X509688Y437000D01*
X513111D01*
X516418Y437886D01*
X519382Y439597D01*
X521803Y442018D01*
X523514Y444982D01*
X524400Y448288D01*
Y451712D01*
X523514Y455018D01*
X521803Y457982D01*
X519382Y460403D01*
X516418Y462114D01*
X513111Y463000D01*
D02*
G37*
G36*
X417812D02*
X414389D01*
X411082Y462114D01*
X408118Y460403D01*
X405697Y457982D01*
X403986Y455018D01*
X403100Y451712D01*
Y448288D01*
X403986Y444982D01*
X405697Y442018D01*
X408118Y439597D01*
X411082Y437886D01*
X414389Y437000D01*
X417812D01*
X421118Y437886D01*
X424082Y439597D01*
X426503Y442018D01*
X428214Y444982D01*
X429100Y448288D01*
Y451712D01*
X428214Y455018D01*
X426503Y457982D01*
X424082Y460403D01*
X421118Y462114D01*
X417812Y463000D01*
D02*
G37*
G36*
X290812D02*
X287388D01*
X284082Y462114D01*
X281118Y460403D01*
X278697Y457982D01*
X276986Y455018D01*
X276100Y451712D01*
Y448288D01*
X276986Y444982D01*
X278697Y442018D01*
X281118Y439597D01*
X284082Y437886D01*
X287388Y437000D01*
X290812D01*
X294118Y437886D01*
X297082Y439597D01*
X299503Y442018D01*
X301214Y444982D01*
X302100Y448288D01*
Y451712D01*
X301214Y455018D01*
X299503Y457982D01*
X297082Y460403D01*
X294118Y462114D01*
X290812Y463000D01*
D02*
G37*
G36*
X1832364Y474000D02*
X1827636D01*
X1823000Y473078D01*
X1818632Y471269D01*
X1814701Y468642D01*
X1811358Y465299D01*
X1808732Y461368D01*
X1806922Y457001D01*
X1806000Y452364D01*
Y447636D01*
X1806922Y442999D01*
X1808732Y438632D01*
X1811358Y434701D01*
X1814701Y431358D01*
X1818632Y428731D01*
X1823000Y426922D01*
X1827636Y426000D01*
X1832364D01*
X1837000Y426922D01*
X1841368Y428731D01*
X1845299Y431358D01*
X1848642Y434701D01*
X1851268Y438632D01*
X1853078Y442999D01*
X1854000Y447636D01*
Y452364D01*
X1853078Y457001D01*
X1851268Y461368D01*
X1848642Y465299D01*
X1845299Y468642D01*
X1841368Y471269D01*
X1837000Y473078D01*
X1832364Y474000D01*
D02*
G37*
G36*
X52364D02*
X47636D01*
X43000Y473078D01*
X38632Y471269D01*
X34701Y468642D01*
X31358Y465299D01*
X28732Y461368D01*
X26922Y457001D01*
X26000Y452364D01*
Y447636D01*
X26922Y442999D01*
X28732Y438632D01*
X31358Y434701D01*
X34701Y431358D01*
X38632Y428731D01*
X43000Y426922D01*
X47636Y426000D01*
X52364D01*
X57000Y426922D01*
X61368Y428731D01*
X65299Y431358D01*
X68642Y434701D01*
X71269Y438632D01*
X73078Y442999D01*
X74000Y447636D01*
Y452364D01*
X73078Y457001D01*
X71269Y461368D01*
X68642Y465299D01*
X65299Y468642D01*
X61368Y471269D01*
X57000Y473078D01*
X52364Y474000D01*
D02*
G37*
G36*
X1339400Y422789D02*
Y412500D01*
X1349689D01*
X1349014Y415018D01*
X1347303Y417982D01*
X1344882Y420403D01*
X1341918Y422114D01*
X1339400Y422789D01*
D02*
G37*
G36*
X1334400Y422789D02*
X1331882Y422114D01*
X1328918Y420403D01*
X1326497Y417982D01*
X1324786Y415018D01*
X1324111Y412500D01*
X1334400D01*
Y422789D01*
D02*
G37*
G36*
X291600Y422789D02*
Y412500D01*
X301889D01*
X301214Y415018D01*
X299503Y417982D01*
X297082Y420403D01*
X294118Y422114D01*
X291600Y422789D01*
D02*
G37*
G36*
X286600D02*
X284082Y422114D01*
X281118Y420403D01*
X278697Y417982D01*
X276986Y415018D01*
X276311Y412500D01*
X286600D01*
Y422789D01*
D02*
G37*
G36*
X1334400Y407500D02*
X1324111D01*
X1324786Y404982D01*
X1326497Y402018D01*
X1328918Y399597D01*
X1331882Y397886D01*
X1334400Y397211D01*
Y407500D01*
D02*
G37*
G36*
X301889Y407500D02*
X291600D01*
Y397211D01*
X294118Y397886D01*
X297082Y399597D01*
X299503Y402018D01*
X301214Y404982D01*
X301889Y407500D01*
D02*
G37*
G36*
X286600D02*
X276311D01*
X276986Y404982D01*
X278697Y402018D01*
X281118Y399597D01*
X284082Y397886D01*
X286600Y397211D01*
Y407500D01*
D02*
G37*
G36*
X1349689Y407500D02*
X1339400D01*
Y397211D01*
X1341918Y397886D01*
X1344882Y399597D01*
X1347303Y402018D01*
X1349014Y404982D01*
X1349689Y407500D01*
D02*
G37*
G36*
X1560912Y423000D02*
X1557489D01*
X1554182Y422114D01*
X1551218Y420403D01*
X1548797Y417982D01*
X1547086Y415018D01*
X1546200Y411712D01*
Y408288D01*
X1547086Y404982D01*
X1548797Y402018D01*
X1551218Y399597D01*
X1554182Y397886D01*
X1557489Y397000D01*
X1560912D01*
X1564218Y397886D01*
X1567182Y399597D01*
X1569603Y402018D01*
X1571314Y404982D01*
X1572200Y408288D01*
Y411712D01*
X1571314Y415018D01*
X1569603Y417982D01*
X1567182Y420403D01*
X1564218Y422114D01*
X1560912Y423000D01*
D02*
G37*
G36*
X1465612D02*
X1462189D01*
X1458882Y422114D01*
X1455918Y420403D01*
X1453497Y417982D01*
X1451786Y415018D01*
X1450900Y411712D01*
Y408288D01*
X1451786Y404982D01*
X1453497Y402018D01*
X1455918Y399597D01*
X1458882Y397886D01*
X1462189Y397000D01*
X1465612D01*
X1468918Y397886D01*
X1471882Y399597D01*
X1474303Y402018D01*
X1476014Y404982D01*
X1476900Y408288D01*
Y411712D01*
X1476014Y415018D01*
X1474303Y417982D01*
X1471882Y420403D01*
X1468918Y422114D01*
X1465612Y423000D01*
D02*
G37*
G36*
X513111D02*
X509688D01*
X506382Y422114D01*
X503418Y420403D01*
X500997Y417982D01*
X499286Y415018D01*
X498400Y411712D01*
Y408288D01*
X499286Y404982D01*
X500997Y402018D01*
X503418Y399597D01*
X506382Y397886D01*
X509688Y397000D01*
X513111D01*
X516418Y397886D01*
X519382Y399597D01*
X521803Y402018D01*
X523514Y404982D01*
X524400Y408288D01*
Y411712D01*
X523514Y415018D01*
X521803Y417982D01*
X519382Y420403D01*
X516418Y422114D01*
X513111Y423000D01*
D02*
G37*
G36*
X417812D02*
X414389D01*
X411082Y422114D01*
X408118Y420403D01*
X405697Y417982D01*
X403986Y415018D01*
X403100Y411712D01*
Y408288D01*
X403986Y404982D01*
X405697Y402018D01*
X408118Y399597D01*
X411082Y397886D01*
X414389Y397000D01*
X417812D01*
X421118Y397886D01*
X424082Y399597D01*
X426503Y402018D01*
X428214Y404982D01*
X429100Y408288D01*
Y411712D01*
X428214Y415018D01*
X426503Y417982D01*
X424082Y420403D01*
X421118Y422114D01*
X417812Y423000D01*
D02*
G37*
G36*
X1465612Y383000D02*
X1462189D01*
X1458882Y382114D01*
X1455918Y380403D01*
X1453497Y377982D01*
X1451786Y375018D01*
X1450900Y371712D01*
Y368288D01*
X1451786Y364982D01*
X1453497Y362018D01*
X1455918Y359597D01*
X1458882Y357886D01*
X1462189Y357000D01*
X1465612D01*
X1468918Y357886D01*
X1471882Y359597D01*
X1474303Y362018D01*
X1476014Y364982D01*
X1476900Y368288D01*
Y371712D01*
X1476014Y375018D01*
X1474303Y377982D01*
X1471882Y380403D01*
X1468918Y382114D01*
X1465612Y383000D01*
D02*
G37*
G36*
X417812D02*
X414389D01*
X411082Y382114D01*
X408118Y380403D01*
X405697Y377982D01*
X403986Y375018D01*
X403100Y371712D01*
Y368288D01*
X403986Y364982D01*
X405697Y362018D01*
X408118Y359597D01*
X411082Y357886D01*
X414389Y357000D01*
X417812D01*
X421118Y357886D01*
X424082Y359597D01*
X426503Y362018D01*
X428214Y364982D01*
X429100Y368288D01*
Y371712D01*
X428214Y375018D01*
X426503Y377982D01*
X424082Y380403D01*
X421118Y382114D01*
X417812Y383000D01*
D02*
G37*
G36*
X1039150Y325050D02*
X1021450D01*
Y307350D01*
X1039150D01*
Y325050D01*
D02*
G37*
G36*
X1561613Y344500D02*
X1556787D01*
X1552054Y343559D01*
X1547595Y341712D01*
X1543582Y339030D01*
X1540170Y335618D01*
X1537488Y331605D01*
X1535641Y327146D01*
X1534700Y322413D01*
Y317587D01*
X1535641Y312854D01*
X1537488Y308395D01*
X1540170Y304382D01*
X1543582Y300970D01*
X1547595Y298288D01*
X1552054Y296441D01*
X1556787Y295500D01*
X1561613D01*
X1566346Y296441D01*
X1570805Y298288D01*
X1574818Y300970D01*
X1578230Y304382D01*
X1580912Y308395D01*
X1582758Y312854D01*
X1583700Y317587D01*
Y322413D01*
X1582758Y327146D01*
X1580912Y331605D01*
X1578230Y335618D01*
X1574818Y339030D01*
X1570805Y341712D01*
X1566346Y343559D01*
X1561613Y344500D01*
D02*
G37*
G36*
X1466313D02*
X1461487D01*
X1456754Y343559D01*
X1452295Y341712D01*
X1448282Y339030D01*
X1444870Y335618D01*
X1442188Y331605D01*
X1440341Y327146D01*
X1439400Y322413D01*
Y317587D01*
X1440341Y312854D01*
X1442188Y308395D01*
X1444870Y304382D01*
X1448282Y300970D01*
X1452295Y298288D01*
X1456754Y296441D01*
X1461487Y295500D01*
X1466313D01*
X1471046Y296441D01*
X1475505Y298288D01*
X1479518Y300970D01*
X1482930Y304382D01*
X1485612Y308395D01*
X1487458Y312854D01*
X1488400Y317587D01*
Y322413D01*
X1487458Y327146D01*
X1485612Y331605D01*
X1482930Y335618D01*
X1479518Y339030D01*
X1475505Y341712D01*
X1471046Y343559D01*
X1466313Y344500D01*
D02*
G37*
G36*
X1339313D02*
X1334487D01*
X1329754Y343559D01*
X1325295Y341712D01*
X1321282Y339030D01*
X1317870Y335618D01*
X1315188Y331605D01*
X1313342Y327146D01*
X1312400Y322413D01*
Y317587D01*
X1313342Y312854D01*
X1315188Y308395D01*
X1317870Y304382D01*
X1321282Y300970D01*
X1325295Y298288D01*
X1329754Y296441D01*
X1334487Y295500D01*
X1339313D01*
X1344046Y296441D01*
X1348505Y298288D01*
X1352518Y300970D01*
X1355930Y304382D01*
X1358612Y308395D01*
X1360459Y312854D01*
X1361400Y317587D01*
Y322413D01*
X1360459Y327146D01*
X1358612Y331605D01*
X1355930Y335618D01*
X1352518Y339030D01*
X1348505Y341712D01*
X1344046Y343559D01*
X1339313Y344500D01*
D02*
G37*
G36*
X513813D02*
X508987D01*
X504254Y343559D01*
X499795Y341712D01*
X495782Y339030D01*
X492370Y335618D01*
X489688Y331605D01*
X487841Y327146D01*
X486900Y322413D01*
Y317587D01*
X487841Y312854D01*
X489688Y308395D01*
X492370Y304382D01*
X495782Y300970D01*
X499795Y298288D01*
X504254Y296441D01*
X508987Y295500D01*
X513813D01*
X518546Y296441D01*
X523005Y298288D01*
X527018Y300970D01*
X530430Y304382D01*
X533112Y308395D01*
X534958Y312854D01*
X535900Y317587D01*
Y322413D01*
X534958Y327146D01*
X533112Y331605D01*
X530430Y335618D01*
X527018Y339030D01*
X523005Y341712D01*
X518546Y343559D01*
X513813Y344500D01*
D02*
G37*
G36*
X418513D02*
X413687D01*
X408954Y343559D01*
X404495Y341712D01*
X400482Y339030D01*
X397070Y335618D01*
X394388Y331605D01*
X392542Y327146D01*
X391600Y322413D01*
Y317587D01*
X392542Y312854D01*
X394388Y308395D01*
X397070Y304382D01*
X400482Y300970D01*
X404495Y298288D01*
X408954Y296441D01*
X413687Y295500D01*
X418513D01*
X423246Y296441D01*
X427705Y298288D01*
X431718Y300970D01*
X435130Y304382D01*
X437812Y308395D01*
X439659Y312854D01*
X440600Y317587D01*
Y322413D01*
X439659Y327146D01*
X437812Y331605D01*
X435130Y335618D01*
X431718Y339030D01*
X427705Y341712D01*
X423246Y343559D01*
X418513Y344500D01*
D02*
G37*
G36*
X1058200Y299292D02*
Y293300D01*
X1064192D01*
X1063947Y294216D01*
X1062782Y296234D01*
X1061134Y297882D01*
X1059116Y299047D01*
X1058200Y299292D01*
D02*
G37*
G36*
X1053200Y299292D02*
X1052284Y299047D01*
X1050266Y297882D01*
X1048618Y296234D01*
X1047453Y294216D01*
X1047208Y293300D01*
X1053200D01*
Y299292D01*
D02*
G37*
G36*
Y288300D02*
X1047208D01*
X1047453Y287384D01*
X1048618Y285366D01*
X1050266Y283718D01*
X1052284Y282553D01*
X1053200Y282308D01*
Y288300D01*
D02*
G37*
G36*
X1064192D02*
X1058200D01*
Y282308D01*
X1059116Y282553D01*
X1061134Y283718D01*
X1062782Y285366D01*
X1063947Y287384D01*
X1064192Y288300D01*
D02*
G37*
G36*
X1031465Y299650D02*
X1029135D01*
X1026884Y299047D01*
X1024866Y297882D01*
X1023218Y296234D01*
X1022053Y294216D01*
X1021450Y291965D01*
Y289635D01*
X1022053Y287384D01*
X1023218Y285366D01*
X1024866Y283718D01*
X1026884Y282553D01*
X1029135Y281950D01*
X1031465D01*
X1033716Y282553D01*
X1035734Y283718D01*
X1037382Y285366D01*
X1038547Y287384D01*
X1039150Y289635D01*
Y291965D01*
X1038547Y294216D01*
X1037382Y296234D01*
X1035734Y297882D01*
X1033716Y299047D01*
X1031465Y299650D01*
D02*
G37*
G36*
X1058200Y273892D02*
Y267900D01*
X1064192D01*
X1063947Y268816D01*
X1062782Y270834D01*
X1061134Y272482D01*
X1059116Y273647D01*
X1058200Y273892D01*
D02*
G37*
G36*
X1032800D02*
Y267900D01*
X1038792D01*
X1038547Y268816D01*
X1037382Y270834D01*
X1035734Y272482D01*
X1033716Y273647D01*
X1032800Y273892D01*
D02*
G37*
G36*
X1053200Y273892D02*
X1052284Y273647D01*
X1050266Y272482D01*
X1048618Y270834D01*
X1047453Y268816D01*
X1047208Y267900D01*
X1053200D01*
Y273892D01*
D02*
G37*
G36*
X1027800D02*
X1026884Y273647D01*
X1024866Y272482D01*
X1023218Y270834D01*
X1022053Y268816D01*
X1021808Y267900D01*
X1027800D01*
Y273892D01*
D02*
G37*
G36*
X1053200Y262900D02*
X1047208D01*
X1047453Y261984D01*
X1048618Y259966D01*
X1050266Y258318D01*
X1052284Y257153D01*
X1053200Y256908D01*
Y262900D01*
D02*
G37*
G36*
X1027800D02*
X1021808D01*
X1022053Y261984D01*
X1023218Y259966D01*
X1024866Y258318D01*
X1026884Y257153D01*
X1027800Y256908D01*
Y262900D01*
D02*
G37*
G36*
X1038792D02*
X1032800D01*
Y256908D01*
X1033716Y257153D01*
X1035734Y258318D01*
X1037382Y259966D01*
X1038547Y261984D01*
X1038792Y262900D01*
D02*
G37*
G36*
X1064192D02*
X1058200D01*
Y256908D01*
X1059116Y257153D01*
X1061134Y258318D01*
X1062782Y259966D01*
X1063947Y261984D01*
X1064192Y262900D01*
D02*
G37*
G36*
X1053200Y212100D02*
X1047208D01*
X1047453Y211184D01*
X1048618Y209166D01*
X1050266Y207518D01*
X1052284Y206353D01*
X1053200Y206108D01*
Y212100D01*
D02*
G37*
G36*
X1027800D02*
X1021808D01*
X1022053Y211184D01*
X1023218Y209166D01*
X1024866Y207518D01*
X1026884Y206353D01*
X1027800Y206108D01*
Y212100D01*
D02*
G37*
G36*
X1038792D02*
X1032800D01*
Y206108D01*
X1033716Y206353D01*
X1035734Y207518D01*
X1037382Y209166D01*
X1038547Y211184D01*
X1038792Y212100D01*
D02*
G37*
G36*
X1064192D02*
X1058200D01*
Y206108D01*
X1059116Y206353D01*
X1061134Y207518D01*
X1062782Y209166D01*
X1063947Y211184D01*
X1064192Y212100D01*
D02*
G37*
G36*
X1352364Y74000D02*
X1347636D01*
X1342999Y73078D01*
X1338632Y71269D01*
X1334701Y68642D01*
X1331358Y65299D01*
X1328732Y61368D01*
X1326922Y57000D01*
X1326000Y52364D01*
Y47636D01*
X1326922Y43000D01*
X1328732Y38632D01*
X1331358Y34701D01*
X1334701Y31358D01*
X1338632Y28732D01*
X1342999Y26922D01*
X1347636Y26000D01*
X1352364D01*
X1357000Y26922D01*
X1361368Y28732D01*
X1365299Y31358D01*
X1368642Y34701D01*
X1371268Y38632D01*
X1373078Y43000D01*
X1374000Y47636D01*
Y52364D01*
X1373078Y57000D01*
X1371268Y61368D01*
X1368642Y65299D01*
X1365299Y68642D01*
X1361368Y71269D01*
X1357000Y73078D01*
X1352364Y74000D01*
D02*
G37*
G36*
X552364D02*
X547636D01*
X542999Y73078D01*
X538632Y71269D01*
X534701Y68642D01*
X531358Y65299D01*
X528731Y61368D01*
X526922Y57000D01*
X526000Y52364D01*
Y47636D01*
X526922Y43000D01*
X528731Y38632D01*
X531358Y34701D01*
X534701Y31358D01*
X538632Y28732D01*
X542999Y26922D01*
X547636Y26000D01*
X552364D01*
X557001Y26922D01*
X561368Y28732D01*
X565299Y31358D01*
X568642Y34701D01*
X571269Y38632D01*
X573078Y43000D01*
X574000Y47636D01*
Y52364D01*
X573078Y57000D01*
X571269Y61368D01*
X568642Y65299D01*
X565299Y68642D01*
X561368Y71269D01*
X557001Y73078D01*
X552364Y74000D01*
D02*
G37*
%LPD*%
G36*
X1309000Y551665D02*
X1376705D01*
Y507000D01*
X1238300D01*
Y677000D01*
X1071000D01*
Y697000D01*
X1018000D01*
Y726000D01*
X1309000D01*
Y551665D01*
D02*
G37*
G36*
X1071000Y674961D02*
X1234900D01*
Y504500D01*
X1297000D01*
Y390000D01*
X1376000D01*
Y350000D01*
X1174000D01*
Y625000D01*
X1071000D01*
Y646000D01*
X1017000D01*
Y675000D01*
X1070803D01*
X1071000Y674961D01*
D02*
G37*
G36*
X1042000Y571000D02*
X1170900D01*
Y346892D01*
X1297000D01*
Y270000D01*
X1590000D01*
Y350000D01*
X1519000D01*
Y391000D01*
X1652000D01*
Y202000D01*
X1120000D01*
Y542000D01*
X1017000D01*
Y599000D01*
X1042000D01*
Y571000D01*
D02*
G37*
G36*
X1069000Y306000D02*
X1043000D01*
Y330961D01*
X1017000D01*
Y293000D01*
X552000D01*
Y349000D01*
X472000D01*
Y392000D01*
X1069000D01*
Y306000D01*
D02*
G37*
G36*
X376000Y290000D02*
X1017000D01*
Y253000D01*
X1068000D01*
Y226000D01*
X1017000D01*
Y214900D01*
X295200D01*
Y294381D01*
X297580Y295019D01*
X300768Y296339D01*
X303757Y298064D01*
X306495Y300165D01*
X308935Y302605D01*
X311035Y305343D01*
X312761Y308332D01*
X314081Y311520D01*
X314975Y314853D01*
X315425Y318274D01*
Y320000D01*
Y321725D01*
X314975Y325147D01*
X314081Y328480D01*
X312761Y331668D01*
X311035Y334657D01*
X308935Y337395D01*
X306495Y339835D01*
X303757Y341936D01*
X300768Y343661D01*
X297580Y344981D01*
X294247Y345875D01*
X290825Y346325D01*
X287375D01*
X283953Y345875D01*
X280620Y344981D01*
X277432Y343661D01*
X274443Y341936D01*
X271705Y339835D01*
X269265Y337395D01*
X267164Y334657D01*
X265439Y331668D01*
X264118Y328480D01*
X263454Y326000D01*
X249000D01*
Y391000D01*
X376000D01*
Y290000D01*
D02*
G37*
G36*
X329000Y551101D02*
Y506000D01*
X246000D01*
Y323000D01*
X261980D01*
X262817Y322045D01*
X262775Y321725D01*
Y318274D01*
X263225Y314853D01*
X264118Y311520D01*
X265439Y308332D01*
X267164Y305343D01*
X269265Y302605D01*
X271705Y300165D01*
X274443Y298064D01*
X277432Y296339D01*
X280620Y295019D01*
X283953Y294125D01*
X287375Y293675D01*
X290825D01*
X292045Y293836D01*
X293000Y292998D01*
Y212000D01*
X1017000D01*
Y202000D01*
X1069000D01*
Y175000D01*
X1017000D01*
Y140000D01*
X164000D01*
Y551879D01*
X328102Y551999D01*
X329000Y551101D01*
D02*
G37*
D17*
X1030300Y736200D02*
D03*
X1055700D02*
D03*
X1030300Y710800D02*
D03*
X1055700D02*
D03*
X1030300Y685400D02*
D03*
X1055700D02*
D03*
X1030300Y660000D02*
D03*
X1055700D02*
D03*
X1030300Y634600D02*
D03*
X1055700D02*
D03*
X1030300Y609200D02*
D03*
X1055700D02*
D03*
X1030300Y583800D02*
D03*
X1055700Y163800D02*
D03*
X1030300D02*
D03*
X1055700Y189200D02*
D03*
X1030300D02*
D03*
X1055700Y214600D02*
D03*
X1030300D02*
D03*
X1055700Y240000D02*
D03*
X1030300D02*
D03*
X1055700Y265400D02*
D03*
X1030300D02*
D03*
X1055700Y290800D02*
D03*
X1030300D02*
D03*
X1055700Y316200D02*
D03*
D18*
X1055700Y583800D02*
D03*
X1030300Y316200D02*
D03*
D19*
X511400Y450000D02*
D03*
Y410000D02*
D03*
Y370000D02*
D03*
Y490000D02*
D03*
Y530000D02*
D03*
X416100Y450000D02*
D03*
Y490000D02*
D03*
Y530000D02*
D03*
Y410000D02*
D03*
Y370000D02*
D03*
X289100Y450000D02*
D03*
Y410000D02*
D03*
Y370000D02*
D03*
Y490000D02*
D03*
Y530000D02*
D03*
X1336900D02*
D03*
Y490000D02*
D03*
Y370000D02*
D03*
Y410000D02*
D03*
Y450000D02*
D03*
X1559200Y530000D02*
D03*
Y490000D02*
D03*
Y370000D02*
D03*
Y410000D02*
D03*
Y450000D02*
D03*
X1463900Y370000D02*
D03*
Y410000D02*
D03*
Y530000D02*
D03*
Y490000D02*
D03*
Y450000D02*
D03*
D20*
X511400Y320000D02*
D03*
Y580000D02*
D03*
X416100D02*
D03*
Y320000D02*
D03*
X289100D02*
D03*
Y580000D02*
D03*
X1336900D02*
D03*
Y320000D02*
D03*
X1559200Y580000D02*
D03*
Y320000D02*
D03*
X1463900D02*
D03*
Y580000D02*
D03*
D21*
X550000Y50000D02*
D03*
Y850000D02*
D03*
X1350000Y50000D02*
D03*
Y850000D02*
D03*
X50000Y450000D02*
D03*
X1830000D02*
D03*
X1797300Y824600D02*
D03*
X60000Y810000D02*
D03*
Y90000D02*
D03*
X1067400Y88000D02*
D03*
X1061300Y824500D02*
D03*
X1797400Y88000D02*
D03*
X780000Y90000D02*
D03*
Y810000D02*
D03*
M02*
