G04*
G04 #@! TF.GenerationSoftware,Altium Limited,Altium Designer,24.1.2 (44)*
G04*
G04 Layer_Color=128*
%FSLAX44Y44*%
%MOMM*%
G71*
G04*
G04 #@! TF.SameCoordinates,A6084898-CC4A-43A9-84D0-52B613330B6D*
G04*
G04*
G04 #@! TF.FilePolarity,Positive*
G04*
G01*
G75*
%ADD23C,0.1270*%
D23*
X1051300Y824600D02*
X1083300D01*
X1067300Y808600D02*
Y840600D01*
X534000Y50000D02*
X566000D01*
X550000Y34000D02*
Y66000D01*
X534000Y850000D02*
X566000D01*
X550000Y834000D02*
Y866000D01*
X1334000Y50000D02*
X1366000D01*
X1350000Y34000D02*
Y66000D01*
X1334000Y850000D02*
X1366000D01*
X1350000Y834000D02*
Y866000D01*
X34000Y450000D02*
X66000D01*
X50000Y434000D02*
Y466000D01*
X1814000Y450000D02*
X1846000D01*
X1830000Y434000D02*
Y466000D01*
X1025200Y736200D02*
X1035400D01*
X1030300Y731100D02*
Y741300D01*
X1050600Y736200D02*
X1060800D01*
X1055700Y731100D02*
Y741300D01*
X1025200Y710800D02*
X1035400D01*
X1030300Y705700D02*
Y715900D01*
X1050600Y710800D02*
X1060800D01*
X1055700Y705700D02*
Y715900D01*
X1025200Y685400D02*
X1035400D01*
X1030300Y680300D02*
Y690500D01*
X1050600Y685400D02*
X1060800D01*
X1055700Y680300D02*
Y690500D01*
X1025200Y660000D02*
X1035400D01*
X1030300Y654900D02*
Y665100D01*
X1050600Y660000D02*
X1060800D01*
X1055700Y654900D02*
Y665100D01*
X1025200Y634600D02*
X1035400D01*
X1030300Y629500D02*
Y639700D01*
X1050600Y634600D02*
X1060800D01*
X1055700Y629500D02*
Y639700D01*
X1025200Y609200D02*
X1035400D01*
X1030300Y604100D02*
Y614300D01*
X1050600Y609200D02*
X1060800D01*
X1055700Y604100D02*
Y614300D01*
X1025200Y583800D02*
X1035400D01*
X1030300Y578700D02*
Y588900D01*
X1050600Y583800D02*
X1060800D01*
X1055700Y578700D02*
Y588900D01*
X1781300Y824600D02*
X1813300D01*
X1797300Y808600D02*
Y840600D01*
X1050600Y163800D02*
X1060800D01*
X1055700Y158700D02*
Y168900D01*
X1025200Y163800D02*
X1035400D01*
X1030300Y158700D02*
Y168900D01*
X1050600Y189200D02*
X1060800D01*
X1055700Y184100D02*
Y194300D01*
X1025200Y189200D02*
X1035400D01*
X1030300Y184100D02*
Y194300D01*
X1050600Y214600D02*
X1060800D01*
X1055700Y209500D02*
Y219700D01*
X1025200Y214600D02*
X1035400D01*
X1030300Y209500D02*
Y219700D01*
X1050600Y240000D02*
X1060800D01*
X1055700Y234900D02*
Y245100D01*
X1025200Y240000D02*
X1035400D01*
X1030300Y234900D02*
Y245100D01*
X1050600Y265400D02*
X1060800D01*
X1055700Y260300D02*
Y270500D01*
X1025200Y265400D02*
X1035400D01*
X1030300Y260300D02*
Y270500D01*
X1050600Y290800D02*
X1060800D01*
X1055700Y285700D02*
Y295900D01*
X1025200Y290800D02*
X1035400D01*
X1030300Y285700D02*
Y295900D01*
X1050600Y316200D02*
X1060800D01*
X1055700Y311100D02*
Y321300D01*
X1025200Y316200D02*
X1035400D01*
X1030300Y311100D02*
Y321300D01*
X505400Y450000D02*
X517400D01*
X511400Y444000D02*
Y456000D01*
X505400Y410000D02*
X517400D01*
X511400Y404000D02*
Y416000D01*
X505400Y370000D02*
X517400D01*
X511400Y364000D02*
Y376000D01*
X505400Y490000D02*
X517400D01*
X511400Y484000D02*
Y496000D01*
X505400Y530000D02*
X517400D01*
X511400Y524000D02*
Y536000D01*
X495400Y320000D02*
X527400D01*
X511400Y304000D02*
Y336000D01*
X495400Y580000D02*
X527400D01*
X511400Y564000D02*
Y596000D01*
X410100Y450000D02*
X422100D01*
X416100Y444000D02*
Y456000D01*
X410100Y490000D02*
X422100D01*
X416100Y484000D02*
Y496000D01*
X410100Y530000D02*
X422100D01*
X416100Y524000D02*
Y536000D01*
X410100Y410000D02*
X422100D01*
X416100Y404000D02*
Y416000D01*
X410100Y370000D02*
X422100D01*
X416100Y364000D02*
Y376000D01*
X400100Y580000D02*
X432100D01*
X416100Y564000D02*
Y596000D01*
X400100Y320000D02*
X432100D01*
X416100Y304000D02*
Y336000D01*
X283100Y450000D02*
X295100D01*
X289100Y444000D02*
Y456000D01*
X283100Y410000D02*
X295100D01*
X289100Y404000D02*
Y416000D01*
X283100Y370000D02*
X295100D01*
X289100Y364000D02*
Y376000D01*
X283100Y490000D02*
X295100D01*
X289100Y484000D02*
Y496000D01*
X283100Y530000D02*
X295100D01*
X289100Y524000D02*
Y536000D01*
X273100Y320000D02*
X305100D01*
X289100Y304000D02*
Y336000D01*
X273100Y580000D02*
X305100D01*
X289100Y564000D02*
Y596000D01*
X44100Y810000D02*
X75900D01*
X60000Y794100D02*
Y825900D01*
X44100Y90000D02*
X75900D01*
X60000Y74100D02*
Y105900D01*
X1051300Y88000D02*
X1083300D01*
X1067300Y72000D02*
Y104000D01*
X1781300Y88000D02*
X1813300D01*
X1797300Y72000D02*
Y104000D01*
X1320900Y580000D02*
X1352900D01*
X1336900Y564000D02*
Y596000D01*
X1320900Y320000D02*
X1352900D01*
X1336900Y304000D02*
Y336000D01*
X1330900Y530000D02*
X1342900D01*
X1336900Y524000D02*
Y536000D01*
X1330900Y490000D02*
X1342900D01*
X1336900Y484000D02*
Y496000D01*
X1330900Y370000D02*
X1342900D01*
X1336900Y364000D02*
Y376000D01*
X1330900Y410000D02*
X1342900D01*
X1336900Y404000D02*
Y416000D01*
X1330900Y450000D02*
X1342900D01*
X1336900Y444000D02*
Y456000D01*
X1543200Y580000D02*
X1575200D01*
X1559200Y564000D02*
Y596000D01*
X1543200Y320000D02*
X1575200D01*
X1559200Y304000D02*
Y336000D01*
X1553200Y530000D02*
X1565200D01*
X1559200Y524000D02*
Y536000D01*
X1553200Y490000D02*
X1565200D01*
X1559200Y484000D02*
Y496000D01*
X1553200Y370000D02*
X1565200D01*
X1559200Y364000D02*
Y376000D01*
X1553200Y410000D02*
X1565200D01*
X1559200Y404000D02*
Y416000D01*
X1553200Y450000D02*
X1565200D01*
X1559200Y444000D02*
Y456000D01*
X1447900Y320000D02*
X1479900D01*
X1463900Y304000D02*
Y336000D01*
X1447900Y580000D02*
X1479900D01*
X1463900Y564000D02*
Y596000D01*
X1457900Y370000D02*
X1469900D01*
X1463900Y364000D02*
Y376000D01*
X1457900Y410000D02*
X1469900D01*
X1463900Y404000D02*
Y416000D01*
X1457900Y530000D02*
X1469900D01*
X1463900Y524000D02*
Y536000D01*
X1457900Y490000D02*
X1469900D01*
X1463900Y484000D02*
Y496000D01*
X1457900Y450000D02*
X1469900D01*
X1463900Y444000D02*
Y456000D01*
X764100Y90000D02*
X795900D01*
X780000Y74100D02*
Y105900D01*
X764100Y810000D02*
X795900D01*
X780000Y794100D02*
Y825900D01*
M02*
